<svg xmlns="http://www.w3.org/2000/svg" viewBox="0 0 64 64" width="80" height="80">
  <circle cx="32" cy="32" r="30" fill="#d63031" />
  <path fill="#fff" d="M50.9,41.4L46.7,30h-4.4v-2c0-0.9-0.8-1.7-1.7-1.7H23.5c-0.9,0-1.7,0.8-1.7,1.7v2H17.3L13.1,41.4
    c-0.7,1.9,0.6,3.6,2.5,3.6h0.8c0.9,1.2,2.4,2,4,2s3.1-0.8,4-2h13.2c0.9,1.2,2.4,2,4,2s3.1-0.8,4-2h0.8C50.3,45,51.6,43.3,50.9,41.4
    z M21.3,37.2h-4.1l2.1-5.8H21.3V37.2z M43.5,37.2h-4.1v-5.8h2.1L43.5,37.2z M21.3,32.7v-2h1.8v2H21.3z M39.3,32.7v-2h1.8v2H39.3z"/>
</svg>
