<svg xmlns="http://www.w3.org/2000/svg" viewBox="0 0 64 64" width="80" height="80">
  <circle cx="32" cy="32" r="30" fill="#fdcb6e" />
  <path fill="#fff" d="M42.1,25.3l-5.7-5.7c-0.4-0.4-1.2-0.4-1.7,0l-4.8,4.8L22.8,15l5-5c0.4-0.4,0.4-1.2,0-1.7l-5.7-5.7
    c-0.4-0.4-1.2-0.4-1.7,0l-5,5L15,14.8l-4.8,4.8c-0.4,0.4-0.4,1.2,0,1.7l5.7,5.7c0.4,0.4,1.2,0.4,1.7,0l4.8-4.8L38,39.7l-5,5
    c-0.4,0.4-0.4,1.2,0,1.7l5.7,5.7c0.4,0.4,1.2,0.4,1.7,0l5-5L49,44.3l4.8-4.8c0.4-0.4,0.4-1.2,0-1.7L48.2,32c-0.4-0.4-1.2-0.4-1.7,0
    l-4.8,4.8L25.3,25.3L42.1,25.3z"/>
</svg>
