<svg xmlns="http://www.w3.org/2000/svg" viewBox="0 0 64 64" width="80" height="80">
  <circle cx="32" cy="32" r="30" fill="#e17055" />
  <path fill="#fff" d="M46.5,18.5l-6-6c-0.5-0.5-1.3-0.5-1.8,0l-4.8,4.8l-2.4-2.4l4.8-4.8c0.5-0.5,0.5-1.3,0-1.8l-6-6
    c-0.5-0.5-1.3-0.5-1.8,0l-4.8,4.8l-2.4-2.4l4.8-4.8c0.5-0.5,0.5-1.3,0-1.8l-6-6c-0.5-0.5-1.3-0.5-1.8,0L7.5,18.5
    c-0.5,0.5-0.5,1.3,0,1.8l6,6c0.5,0.5,1.3,0.5,1.8,0l4.8-4.8l2.4,2.4l-4.8,4.8c-0.5,0.5-0.5,1.3,0,1.8l6,6c0.5,0.5,1.3,0.5,1.8,0
    l4.8-4.8l2.4,2.4l-4.8,4.8c-0.5,0.5-0.5,1.3,0,1.8l6,6c0.5,0.5,1.3,0.5,1.8,0l4.8-4.8l2.4,2.4l-4.8,4.8c-0.5,0.5-0.5,1.3,0,1.8
    l6,6c0.5,0.5,1.3,0.5,1.8,0l11-11C47,19.8,47,19,46.5,18.5z"/>
</svg>
