<?xml version="1.0" encoding="UTF-8"?><svg xmlns="http://www.w3.org/2000/svg" viewBox="0 0 262.52 232.59"><defs><style>.d{fill:#000;}.d,.e{stroke-width:0px;}.f{fill:#fff;stroke:#000;stroke-linecap:round;stroke-miterlimit:10;stroke-width:5px;}.e{fill:#1b75bb;}</style></defs><g id="a"><path class="f" d="M93.45,220.37c-.51-.24-1.05-.44-1.53-.72-2.53-1.47-3.3-3.72-2.8-6.49.66-3.66,1.02-7.42,2.08-10.95,1.6-5.32,3.83-10.49,4.31-16.07.36-4.13.24-8.3.28-12.46.04-4.85.02-9.7.01-14.56,0-1.92.18-3.87-.1-5.75-.61-4.05-1.52-8.05-2.19-12.1-.37-2.24-.26-2.21-2.49-2.08-1.84.11-3.73.34-5.32-1.03-.89-.76-1.83-1.25-3.02-.49-.23.15-.74-.1-1.11-.21-.92-.27-1.93-.95-2.72-.75-1.77.44-3.46,1.26-5.13,2.04-2.8,1.31-5.51,2.81-8.33,4.06-5.45,2.41-10.96,4.66-16.42,7.04-5.06,2.21-10.1,4.46-15.13,6.75-4.59,2.09-9.1,4.34-13.73,6.32-2.62,1.12-5.12.75-7.48-1.33-1.62-1.42-2.36-3.25-3.48-4.92-2.95-4.42-4.62-9.38-6.26-14.35-.13-.39-.27-.77-.4-1.15,0-.22,0-.44,0-.67.49-2.83,2.3-4.77,4.64-6.07,4.16-2.32,8.48-4.35,12.69-6.58,5.87-3.1,11.69-6.28,17.56-9.39,2.36-1.25,4.8-2.36,7.17-3.58,2.22-1.14,4.42-2.31,6.6-3.53,1.54-.86,3-1.86,4.53-2.75,1.89-1.1,3.88-2.05,5.7-3.26.72-.48,1.1-1.47,1.66-2.22.44-.59.85-1.22,1.37-1.72,1.23-1.18,2.42-2.29,2.79-4.12.21-1.02.9-2.04,1.62-2.84,2.89-3.21,6.41-5.62,10.22-7.61,2.9-1.51,5.89-2.82,8.83-4.26,7.73-3.8,15.44-7.65,23.19-11.41,6.56-3.19,13.14-6.34,19.77-9.38,3.15-1.45,6.57-1.62,9.98-1.32,1.13.1,2.31.83,2.86-.86,0-.01.31.13.41.07,1.17-.55,2.34-1.11,3.49-1.7.27-.14.44-.49.71-.57.62-.17,1.35-.09,1.91-.37,6.02-2.97,12.02-5.98,18.02-8.98.44-.22.87-.57,1.33-.61,2.8-.28,5.45-.92,7.98-2.3,2.8-1.53,5.74-2.87,8.72-4.03,1.71-.67,3.78-.8,5.1.77,2.1,2.49,3.92,5.22,5.95,7.98.83-.4,2.08-.84,3.16-1.56,3.38-2.26,6.63-.94,9.56.63,3.79,2.02,3.67,9.06-.09,12.02-1.73,1.36-3.79,2.31-5.37,3.25.76,2.91,1.52,5.74,2.24,8.58.47,1.86-.67,4.89-2.3,5.77-2.06,1.1-4.22,2.03-6.32,3.06-1.76.86-3.59,1.63-5.22,2.69-1.56,1.02-2.76,2.67-4.39,3.5-7.48,3.81-15.06,7.42-22.59,11.13-1.78.87-3.81,1.51-4.21,3.89-.03.15-.11.33-.22.43-3.33,2.69-6.58,5.5-10.04,8.01-2.03,1.47-4.49,2.33-6.57,3.74-1.7,1.15-3.97,1.65-3.93,4.76.09,7.08-.43,14.16-.54,21.24-.08,4.91.11,9.82.2,14.73.07,3.83-.43,7.55-.32,11.38.07,2.49-.83,4.97-.68,7.46-.36,1.77-1.06,12.19-.9,13.68l-.81,10.58v16.27l-.41,14.24s-.04,1.67-7.32,0c-6.42-1.47-16.68-3.66-16.68-3.66l-20.08-5.31Z"/></g><g id="b"><path class="d" d="M93.51,215.12c.43-2.33.68-4.57,1.28-6.71,1.34-4.8,2.96-9.52,4.27-14.32,1.33-4.88,1.81-9.88,1.73-14.96-.11-6.37.11-12.75.17-19.13.05-5.35-.69-10.6-1.82-15.83-.64-2.94-.62-6.03-.77-9.06-.11-2.21-.1-2.26-2.25-2-1.93.23-3.86.36-5.8.51-1.78.14-3.14-.39-3.68-2.29-.13-.46-.47-.86-.76-1.36-.47.19-.9.3-1.26.52-1.73,1.06-3.39,1.44-5.11-.11-.3-.27-1.17-.17-1.65.04-6.08,2.72-12.11,5.52-18.19,8.24-10.38,4.64-20.78,9.22-31.16,13.84-3.6,1.6-7.21,3.18-10.75,4.9-1.14.55-1.92.46-2.5-.55-1.81-3.17-3.65-6.33-5.28-9.59-.81-1.62-1.16-3.47-1.83-5.17-.46-1.19-.1-1.74,1-2.31,6.32-3.24,12.64-6.47,18.87-9.87,12.95-7.06,25.85-14.22,38.77-21.34.48-.26.93-.58,1.58-.98-1.57-1.87-.16-2.58,1.22-3.33.82-.45,1.6-.96,2.52-1.51-1.76-2.4-.11-3.94,1.36-5.34,3.52-3.36,7.66-5.82,12.04-7.9,5.36-2.54,10.65-5.22,15.99-7.81,6.13-2.98,12.27-5.95,18.43-8.86,4.2-1.99,8.41-3.95,12.69-5.75,1.45-.61,3.12-.77,4.71-.97,1.87-.24,3.55.15,4.54,2.3.49-.35,1.25-.65,1.25-.95.01-1.63,1.31-1.94,2.36-2.44,8.19-3.93,16.4-7.84,24.61-11.74.25-.12.52-.27.78-.27,4.98-.02,8.83-3.01,13.07-4.97,3.59-1.66,3.58-1.77,5.57,1.66,1.42,2.44,2.76,4.94,4.23,7.59,2.41-1.19,4.82-2.37,7.23-3.56,2.45-1.21,2.72-1.2,5.35.14-.19,2.12-1.07,3.62-3.22,4.46-2.41.95-4.68,2.25-7.04,3.41,1.16,2.61,2.46,5.07,3.36,7.67,1.85,5.3,1.46,4.2-2.48,6.29-1.71.91-3.58,1.52-5.25,2.49-1.7.99-3.18,2.35-4.86,3.38-2.11,1.3-4.29,2.51-6.51,3.62-6.69,3.36-13.4,6.67-20.12,9.98-.97.48-1.87,1.09-3.07.25-.69-.49-1.41.11-1.09.96.98,2.66-.48,4.23-2.39,5.54-3.47,2.39-6.96,4.74-10.52,6.99-2.39,1.51-4.93,2.76-7.35,4.22-.46.28-.94.99-.95,1.51-.24,15.53-.54,31.07-.54,46.6,0,7.81-2.41,55.28-2.09,63.25"/></g><g id="c"><path class="e" d="M205.07,56.68c-15.79,7.02-31.13,13.84-46.48,20.66-.05-.1-.1-.19-.15-.29,14.91-8.57,29.81-17.14,44.97-25.86-15.54-6.46-30.79-12.8-46.04-19.14.03-.08.06-.16.09-.25,15.28,4.98,30.56,9.96,46.3,15.09-7.04-15.83-13.93-31.3-20.81-46.76.08-.04.15-.09.23-.13,8.61,14.91,17.21,29.83,26.02,45.08,3.29-8.72,6.43-17.06,9.58-25.41.08.03.16.05.24.08-2.32,8.79-4.64,17.57-7.06,26.77,16.02-6.99,31.72-13.84,47.42-20.69l.13.27c-14.59,8.3-29.19,16.6-44.15,25.11,15.99,4.6,31.57,9.08,47.16,13.56-.02.1-.05.19-.07.29-15.99-3.41-31.97-6.82-48.31-10.3,7.13,16.01,14.12,31.7,21.11,47.39-.08.04-.15.09-.23.13-8.65-14.91-17.31-29.83-26.09-44.96-5.56,11.18-11.02,22.16-16.48,33.14-.1-.04-.2-.08-.3-.13,4.25-11.06,8.49-22.13,12.92-33.65Z"/></g></svg>