<svg xmlns="http://www.w3.org/2000/svg" viewBox="0 0 64 64" width="80" height="80">
  <circle cx="32" cy="32" r="30" fill="#6c5ce7" />
  <path fill="#fff" d="M44.8,20.2c-3.4-3.4-8.9-3.4-12.3,0l-3.2,3.2l12.3,12.3l3.2-3.2c3.4-3.4,3.4-8.9,0-12.3l0,0l0,0
    C53.7,30.1,54.5,40.4,49.7,48l-6.1-6.1L21.6,47.9c-0.9,1.3-2.3,2.2-3.9,2.4c-1.8,0.2-3.5-0.3-4.8-1.6c-2.5-2.5-2.5-6.5,0-9
    c1.4-1.4,3.2-2.1,5-1.7l5.8-5.8l-8.1-8.1c-2.3,0.9-5.1,0.4-7-1.6c-3.4-3.4-3.4-8.9,0-12.3c3.4-3.4,8.9-3.4,12.3,0l6.1,6.1
    c7.5-5.1,17.7-4.3,24.3,2.2C52.4,17.9,48.9,18.9,44.8,20.2z"/>
</svg>
