<?xml version="1.0" standalone="no"?>
<!DOCTYPE svg PUBLIC "-//W3C//DTD SVG 20010904//EN"
 "http://www.w3.org/TR/2001/REC-SVG-20010904/DTD/svg10.dtd">
<svg version="1.0" xmlns="http://www.w3.org/2000/svg"
 width="1052.000000pt" height="1052.000000pt" viewBox="0 0 1052.000000 1052.000000"
 preserveAspectRatio="xMidYMid meet">
<metadata>
Created by potrace 1.14, written by Peter Selinger 2001-2017
</metadata>
<g transform="translate(0.000000,1052.000000) scale(0.100000,-0.100000)"
fill="#000000" stroke="none">
<path d="M7339 9898 c5 -13 16 -36 25 -53 9 -16 16 -33 16 -36 0 -4 12 -33 27
-65 15 -33 28 -61 29 -64 0 -3 8 -22 17 -42 10 -21 17 -42 17 -48 0 -5 5 -10
10 -10 6 0 10 -6 10 -13 0 -8 6 -27 14 -43 8 -16 26 -56 41 -89 14 -33 36 -80
48 -105 12 -25 22 -47 23 -50 1 -8 20 -51 50 -115 15 -33 28 -62 29 -65 1 -3
10 -23 20 -45 10 -22 19 -42 20 -45 8 -22 43 -102 95 -215 10 -22 35 -78 56
-125 36 -84 61 -141 103 -232 11 -26 21 -52 21 -58 0 -5 5 -10 10 -10 6 0 10
-6 10 -14 0 -12 46 -118 84 -197 13 -26 12 -27 -28 -40 -22 -7 -46 -17 -53
-22 -8 -5 -27 -4 -50 4 -21 7 -41 14 -45 15 -5 1 -10 3 -13 4 -3 1 -8 3 -12 4
-5 1 -14 5 -20 9 -7 5 -13 5 -13 0 0 -4 -12 10 -27 32 -15 22 -32 45 -37 52
-6 6 -22 26 -36 44 -76 100 -139 133 -240 126 -70 -6 -80 -8 -122 -25 -99 -42
-111 -44 -146 -30 -15 6 -31 12 -37 13 -18 4 -269 86 -300 98 -16 6 -34 12
-40 14 -27 5 -59 16 -170 53 -304 101 -415 136 -415 129 0 -8 148 -69 168 -69
6 0 12 -4 12 -10 0 -5 8 -10 18 -10 10 0 22 -3 26 -7 4 -5 11 -8 14 -9 4 0 18
-5 32 -11 14 -6 90 -38 170 -71 80 -34 162 -68 182 -76 21 -9 39 -15 40 -14 2
1 17 -5 33 -14 17 -9 65 -31 108 -48 42 -18 77 -34 77 -36 0 -4 -188 -96 -195
-95 -3 1 -19 -6 -35 -14 -16 -8 -32 -15 -35 -15 -3 0 -6 0 -7 -1 -8 -2 -48 -9
-83 -14 -22 -3 -51 -7 -64 -10 -29 -5 -195 -87 -199 -97 -2 -5 -8 -8 -14 -8
-6 0 -138 -63 -293 -141 -155 -77 -297 -143 -316 -145 -19 -3 -47 -14 -64 -24
-47 -30 -134 -70 -151 -70 -8 0 -25 -9 -36 -20 -14 -13 -29 -18 -42 -14 -23 8
-184 8 -236 0 -58 -8 -130 -26 -166 -41 -19 -8 -35 -14 -37 -14 -4 0 -160 -72
-277 -128 -63 -31 -121 -56 -127 -56 -7 0 -13 -4 -13 -9 0 -4 -5 -8 -10 -8 -6
0 -60 -25 -120 -55 -61 -30 -110 -51 -110 -47 0 4 -4 2 -8 -4 -6 -9 -103 -58
-189 -95 -18 -8 -33 -17 -33 -21 0 -5 -5 -8 -11 -8 -6 0 -113 -50 -237 -111
-125 -61 -279 -136 -342 -167 -63 -31 -118 -60 -121 -65 -3 -5 -9 -8 -13 -7
-4 1 -64 -27 -134 -61 -70 -34 -129 -63 -132 -63 -3 -1 -50 -23 -105 -51 -55
-27 -103 -48 -107 -47 -3 1 -12 -5 -18 -13 -7 -8 -17 -15 -22 -15 -5 0 -34
-16 -64 -35 -30 -19 -57 -35 -60 -35 -2 0 -10 -4 -17 -10 -7 -5 -48 -37 -91
-71 -148 -116 -218 -197 -256 -300 -17 -45 -38 -79 -74 -116 -28 -28 -67 -76
-86 -106 -21 -33 -49 -63 -70 -74 -19 -10 -37 -21 -40 -24 -3 -3 -45 -28 -95
-55 -49 -28 -128 -74 -174 -102 -46 -29 -90 -52 -98 -52 -7 0 -13 -4 -13 -8 0
-5 -129 -73 -287 -153 -159 -79 -290 -146 -293 -150 -3 -3 -30 -18 -60 -34
-115 -60 -167 -87 -215 -113 -27 -15 -84 -45 -125 -67 -41 -21 -87 -47 -102
-58 -16 -10 -28 -16 -28 -13 0 4 -17 -4 -37 -17 -21 -13 -66 -38 -101 -54 -34
-17 -69 -36 -77 -43 -8 -7 -15 -9 -15 -5 0 4 -6 2 -14 -4 -7 -6 -78 -44 -157
-84 -178 -91 -243 -128 -247 -139 -2 -4 -9 -8 -16 -8 -17 0 -104 -96 -129
-144 -28 -54 -47 -114 -47 -152 0 -27 27 -128 47 -174 3 -8 7 -19 8 -25 0 -5
5 -19 9 -30 33 -85 51 -132 52 -141 4 -27 147 -308 164 -324 3 -3 19 -27 35
-55 32 -57 71 -111 100 -140 48 -48 132 -103 165 -108 8 -2 20 -6 26 -10 11
-6 110 -12 127 -7 4 1 15 3 25 4 26 3 95 27 111 40 8 6 17 10 20 9 3 0 25 7
49 18 23 10 61 28 85 38 43 20 155 72 287 134 41 19 167 76 280 126 113 51
217 98 232 106 14 8 33 15 42 15 9 0 16 5 16 10 0 6 6 10 13 10 11 0 149 57
257 107 19 9 36 16 37 15 2 -1 68 27 158 68 22 10 80 35 130 55 123 51 171 74
385 178 102 50 187 91 190 92 3 1 23 9 44 18 63 28 81 29 122 12 22 -10 66
-18 102 -18 34 0 62 -3 62 -7 0 -4 23 -17 52 -31 41 -19 67 -24 135 -24 67 0
83 -3 84 -15 0 -8 2 -22 4 -30 2 -8 7 -31 10 -50 6 -35 10 -57 20 -105 9 -45
15 -79 21 -120 3 -22 8 -47 11 -55 3 -8 8 -26 11 -40 7 -35 9 -1360 2 -1360
-3 0 -7 -15 -8 -33 -7 -85 -60 -297 -99 -387 -3 -8 -8 -23 -9 -32 -2 -9 -11
-36 -19 -60 -9 -24 -17 -47 -18 -53 -2 -5 -6 -16 -10 -22 -5 -7 -6 -13 -3 -13
3 0 1 -12 -5 -27 -18 -48 -51 -208 -53 -260 -1 -13 -3 -23 -6 -23 -4 0 -6 -10
-6 -22 -1 -13 -4 -41 -8 -63 -4 -22 -10 -53 -12 -70 -6 -36 -6 -141 0 -171 9
-43 49 -108 91 -148 70 -68 97 -78 400 -157 44 -12 86 -23 93 -25 7 -2 14 -4
17 -5 2 0 28 -7 57 -16 29 -8 62 -16 73 -18 35 -7 60 -13 60 -15 0 -1 7 -3 15
-5 8 -2 42 -11 75 -20 118 -32 218 -57 239 -60 12 -2 32 -6 46 -10 14 -3 34
-8 45 -10 50 -8 132 -26 169 -36 23 -6 52 -13 66 -16 14 -3 30 -6 35 -7 6 -2
28 -6 50 -11 47 -9 57 -11 110 -24 22 -6 41 -10 43 -11 1 0 3 0 5 -1 1 0 10
-2 19 -4 9 -2 40 -8 70 -15 29 -6 93 -13 141 -16 104 -5 160 13 196 65 21 29
23 44 24 181 1 83 4 150 7 150 3 0 6 222 8 493 4 568 4 587 12 587 3 0 5 24 6
53 1 28 4 106 8 172 3 66 9 172 11 235 6 132 14 232 21 275 3 17 7 66 10 110
5 82 7 106 19 185 14 90 25 700 15 848 -3 47 -1 87 4 93 6 6 6 9 0 9 -5 0 -8
36 -7 82 1 46 5 171 7 278 3 107 8 312 11 455 3 143 10 269 16 280 10 19 99
76 224 141 101 53 148 82 215 137 8 7 47 37 85 67 73 58 103 82 141 115 13 11
38 31 56 45 49 38 78 71 94 109 14 33 47 72 59 71 3 -1 85 38 183 86 97 48
179 88 182 89 3 0 149 72 325 159 279 140 340 175 401 234 14 13 28 16 20 4
-15 -24 -45 -112 -38 -112 4 0 20 26 36 58 15 31 33 68 41 82 13 26 73 59 332
183 78 38 153 79 166 91 67 62 112 179 105 269 -4 45 -42 207 -67 288 -8 24
-4 29 33 49 22 13 63 38 89 57 55 38 55 38 94 -37 10 -19 21 -36 26 -38 4 -2
7 -8 7 -13 0 -5 18 -38 40 -74 22 -36 40 -70 40 -75 0 -6 5 -10 12 -10 6 0 8
-3 5 -7 -4 -3 -1 -13 7 -22 7 -9 26 -41 42 -71 16 -30 32 -57 35 -60 3 -3 19
-30 35 -60 16 -30 31 -57 34 -60 5 -5 15 -22 64 -109 17 -29 41 -70 53 -90 11
-20 27 -47 35 -61 8 -14 47 -80 86 -148 40 -68 72 -127 72 -132 0 -6 5 -10 10
-10 6 0 10 -4 10 -9 0 -5 54 -101 120 -214 66 -113 120 -210 120 -215 0 -5 9
-17 21 -27 l20 -19 -19 44 c-20 46 -46 106 -87 195 -13 28 -30 66 -38 85 -9
19 -29 66 -46 103 -17 38 -31 70 -31 72 0 2 -18 43 -41 92 -60 130 -98 218
-98 226 0 1 -17 36 -37 77 -20 41 -37 80 -38 85 -1 6 -14 35 -30 65 -15 30
-27 56 -27 58 1 1 -13 32 -29 69 -17 37 -33 78 -36 90 -4 13 -10 23 -15 23 -5
0 -9 7 -9 15 0 8 -4 23 -10 33 -11 20 -70 151 -70 156 0 2 -19 44 -41 93 -23
48 -42 94 -42 101 0 6 -4 12 -8 12 -4 0 -11 10 -15 23 -3 12 -15 41 -25 64
-11 25 -17 55 -15 75 3 18 5 36 5 39 1 10 61 -3 61 -13 0 -5 4 -7 9 -3 5 3 52
-4 103 -16 51 -11 107 -23 123 -25 17 -3 43 -9 59 -14 16 -6 42 -10 57 -10 16
0 29 -5 29 -11 0 -6 6 -9 14 -6 8 3 30 2 48 -4 18 -5 49 -12 68 -15 19 -3 42
-7 50 -10 8 -3 25 -8 38 -10 12 -2 32 -6 45 -8 12 -2 54 -11 92 -20 39 -9 81
-18 95 -20 14 -3 68 -14 120 -25 52 -11 135 -29 185 -40 49 -10 93 -17 97 -14
5 2 8 -1 8 -7 0 -6 4 -9 9 -5 5 3 12 1 16 -5 4 -6 10 -8 15 -5 4 3 39 -2 77
-11 37 -9 79 -18 93 -21 14 -2 86 -17 160 -33 74 -16 147 -31 162 -34 15 -3
32 -7 37 -10 5 -4 12 -2 16 4 3 5 -2 10 -13 10 -10 0 -22 3 -26 7 -3 4 -16 8
-28 10 -18 3 -125 34 -220 63 -16 5 -28 6 -28 3 0 -3 -6 -1 -13 5 -7 6 -25 12
-39 14 -15 2 -30 7 -34 11 -4 4 -17 7 -29 7 -12 0 -25 3 -29 7 -3 4 -13 8 -22
9 -8 1 -48 12 -87 23 -40 12 -90 26 -112 32 -22 6 -47 14 -55 17 -19 6 -30 10
-55 16 -28 6 -257 72 -336 97 -37 11 -75 22 -85 24 -11 2 -82 22 -159 45 -77
23 -148 43 -159 45 -18 4 -139 40 -186 55 -14 5 -56 16 -94 26 l-69 18 26 20
c15 12 52 34 84 51 32 16 60 32 63 35 3 3 16 11 30 18 14 6 32 16 40 22 8 5
78 45 155 89 77 43 158 89 180 101 22 13 54 31 70 41 17 11 37 22 45 26 8 4
35 19 61 33 44 27 77 45 209 118 36 20 67 40 68 44 2 4 7 8 12 8 7 0 338 184
415 232 17 10 37 21 45 25 8 3 27 14 41 24 14 10 29 16 33 12 3 -3 6 -2 6 4 0
6 8 13 18 16 9 4 40 20 67 37 28 17 58 33 68 37 9 3 17 9 17 14 0 12 -17 11
-25 -1 -3 -5 -12 -7 -20 -3 -8 3 -15 0 -15 -5 0 -6 -10 -14 -22 -18 -13 -4
-56 -22 -96 -40 -41 -19 -77 -34 -82 -34 -5 0 -25 -9 -44 -21 -20 -12 -36 -19
-36 -16 0 3 -32 -10 -70 -29 -39 -19 -73 -34 -75 -34 -5 0 -55 -21 -142 -62
-27 -12 -52 -23 -58 -24 -5 -1 -41 -16 -80 -34 -38 -17 -79 -35 -90 -40 -11
-5 -42 -19 -70 -31 -27 -13 -52 -24 -55 -24 -11 -3 -68 -28 -128 -55 -35 -17
-65 -30 -67 -30 -3 0 -33 -13 -67 -29 -35 -16 -108 -47 -163 -71 -55 -23 -104
-46 -110 -51 -5 -5 -15 -9 -22 -9 -11 0 -48 -15 -153 -64 -14 -6 -28 -15 -32
-21 -4 -5 -8 -7 -8 -3 0 4 -30 -7 -67 -23 -92 -42 -105 -44 -93 -16 6 12 21
67 34 122 14 55 45 177 71 270 25 94 48 183 51 199 3 16 7 33 10 38 3 4 7 16
9 25 7 38 57 229 64 248 14 35 38 145 32 145 -3 0 -25 -53 -49 -118 -24 -64
-47 -126 -52 -137 -10 -25 -23 -58 -24 -65 -1 -5 -20 -56 -36 -95 -4 -11 -14
-36 -20 -55 -7 -19 -19 -48 -25 -65 -7 -16 -25 -64 -40 -105 -15 -41 -36 -97
-47 -125 -10 -27 -28 -77 -40 -110 -11 -33 -24 -64 -28 -70 -4 -5 -10 -23 -14
-40 l-8 -30 -19 25 c-10 14 -19 31 -19 38 0 6 -4 12 -8 12 -5 0 -14 16 -22 35
-8 19 -17 35 -21 35 -4 0 -9 8 -12 18 -6 17 -37 73 -47 82 -3 3 -11 16 -17 30
-7 14 -26 48 -42 75 -17 28 -35 59 -41 70 -5 11 -21 38 -35 60 -14 22 -28 47
-32 55 -22 45 -118 207 -131 223 -8 9 -12 17 -9 17 4 0 -9 25 -28 55 -19 30
-35 59 -35 65 0 5 -4 10 -10 10 -5 0 -10 4 -10 9 0 10 -142 260 -171 303 -11
14 -19 33 -19 42 0 9 -5 16 -10 16 -6 0 -17 18 -26 40 -9 22 -19 40 -23 40 -4
0 -13 16 -21 35 -8 19 -17 35 -22 35 -4 0 -8 5 -8 10 0 6 -11 27 -23 48 -23
36 -49 81 -103 180 -34 61 -85 142 -90 142 -2 0 0 -10 5 -22z"/>
</g>
</svg>
