<?xml version="1.0" encoding="UTF-8"?><svg id="a" xmlns="http://www.w3.org/2000/svg" viewBox="0 0 60.45 61.03"><defs><style>.b{fill:#161717;stroke-width:0px;}</style></defs><path class="b" d="M31.67,25.82c-.88.89-.88,2.33,0,3.22.43.43,1,.67,1.6.67s1.17-.24,1.6-.67c.88-.89.88-2.33,0-3.22-.86-.87-2.35-.87-3.21,0ZM34.03,28.21c-.41.41-1.12.41-1.52,0-.43-.43-.43-1.13,0-1.56.2-.21.48-.32.76-.32s.56.11.76.32c.43.43.43,1.13,0,1.56Z"/><path class="b" d="M59.77,9.31l-2.07-2.09s-.06-.08-.09-.12c-.03-.03-.07-.06-.11-.09l-4.09-4.13s-.01-.02-.02-.02c0,0,0,0-.01-.01l-2.16-2.18c-.43-.43-1-.67-1.61-.67h0c-.61,0-1.19.24-1.61.67h0l-3.61,3.64s-.06.05-.09.07c-.03.03-.06.06-.08.1l-6.03,6.08s-.03.03-.05.04c-.02.02-.04.04-.05.06l-3.64,3.67c-.87.91-.87,2.38,0,3.26l3.71,3.75-2.4,2.42-1.71-1.72s0,0,0,0l-2.46-2.48s0,0,0,0l-2.39-2.41c-.6-.61-1.72-.61-2.32,0l-.82.83-1.55-1.56c1.22-3.83.63-8.05-1.62-11.32-.1-.15-.26-.24-.43-.25-.17-.02-.35.05-.47.17l-8.1,8.19-4.11-4.15c.53-.9.41-2.05-.37-2.83-.91-.88-2.36-.88-3.25,0-.91.92-.91,2.37,0,3.29.74.75,1.88.87,2.77.36l4.12,4.17-8.11,8.19c-.12.12-.18.3-.17.47.02.17.11.33.25.43,2.16,1.49,4.71,2.26,7.26,2.26,1.33,0,2.67-.22,3.95-.64l1.57,1.58-.82.83c-.32.3-.5.73-.5,1.17,0,.44.18.87.49,1.16l2.39,2.41s0,0,0,0l2.46,2.48s0,0,0,0l1.71,1.72-2.41,2.44-1.52-1.54s0,0,0,0l-2.18-2.2c-.88-.89-2.34-.89-3.25,0l-9.83,9.92s0,0,0,0c0,0,0,0-.01.01l-3.67,3.7s0,0,0,0c-.87.91-.87,2.38,0,3.26l8.55,8.63c.44.45,1.03.67,1.62.67s1.18-.22,1.64-.67l13.52-13.66c.87-.91.87-2.37,0-3.26l-4.01-4.05,2.41-2.44,2,2.02s0,0,0,0l2.46,2.48s0,0,0,0l2.37,2.4c.3.32.73.51,1.17.51s.86-.18,1.16-.5l.34-.34.79.79c.18.18.42.28.68.28s.5-.1.68-.28l7.87-7.95c.37-.37.37-.98,0-1.35l-.78-.79.36-.36c.62-.63.62-1.69,0-2.32l-3.36-3.39-1.49-1.5s0,0,0,0l-2.02-2.04,2.4-2.42,4.01,4.05c.43.43,1.01.67,1.63.67s1.2-.24,1.63-.67l3.62-3.66s.03-.03.05-.04c.02-.02.04-.04.05-.06l6.02-6.09s.06-.04.09-.07c.03-.03.06-.06.08-.1l3.59-3.64c.44-.43.69-1.01.69-1.63s-.24-1.2-.68-1.62ZM8.58,8.66h0c-.45.43-1.15.44-1.58,0-.45-.46-.45-1.17,0-1.63.21-.21.5-.32.78-.32s.57.11.79.32c.45.46.45,1.17,0,1.62ZM15.01,35.65c.44-.43,1.15-.44,1.58,0l1.77,1.78-4.05,4.09-2.55-2.58,3.26-3.29ZM17.66,46.59l-5.33,5.38-3.36-3.39,5.33-5.38,3.36,3.39ZM10.92,39.78l2.55,2.58-5.33,5.38-2.55-2.58,5.33-5.38ZM1.5,50.89c-.43-.43-.43-1.15,0-1.61l3.25-3.29,2.55,2.58-4.05,4.09-1.76-1.78ZM4.09,53.51l4.05-4.09,3.36,3.39-4.05,4.09-3.36-3.39ZM11.63,59.52c-.44.43-1.15.44-1.58,0l-1.77-1.78,4.05-4.09,2.55,2.58-3.26,3.29ZM15.72,55.39l-2.55-2.58,5.33-5.38,2.55,2.58-5.33,5.38ZM25.13,44.27c.43.43.43,1.16,0,1.6l-3.26,3.29-2.55-2.58,4.05-4.09,1.76,1.78ZM22.54,41.66l-4.05,4.09-3.36-3.39,4.05-4.09,3.36,3.39ZM35.34,43.32l-.62-.63,7.55-7.63.62.63-7.55,7.63ZM39.83,29.54l-10.57,10.66-1.63-1.64,10.57-10.66,1.63,1.64ZM26.8,37.72l-3.71-3.75,10.55-10.68,3.73,3.77-10.57,10.66ZM21.53,32.39l-.9-.91,10.55-10.68,1.63,1.64-10.55,10.68-.73-.73ZM6.3,22.54L22.32,6.36c1.72,2.88,2.13,6.46,1.08,9.72l-.02.02h0s-7.45,7.5-7.45,7.5c0,0,0,0,0,0l-.02.02c-3.18,1.07-6.71.67-9.61-1.08ZM17.18,24.01l1.62-1.63,5-5.03,1.44,1.46-3.77,3.81-2.83,2.86-1.46-1.48ZM17.68,28.33c0-.12.05-.24.15-.33l1.23-1.25s0,0,.01,0l4.69-4.75,3.97-4.02c.08-.08.2-.13.32-.13s.24.05.32.13l1.98,2-10.55,10.68-1.98-2c-.09-.08-.13-.19-.13-.32ZM42.63,33.03l-9.93,10.01s0,0-.01.01c-.16.17-.44.18-.62-.01l-1.98-2,10.57-10.66,1.97,1.99c.17.17.17.49,0,.66ZM56.35,7.53l-4.05,4.09-3.37-3.4,4.05-4.09,3.37,3.41ZM51.46,12.46l-5.33,5.38-3.36-3.4,5.33-5.38,3.37,3.4ZM48.83,1.5h0c.2-.21.48-.32.77-.32h0c.29,0,.57.11.77.32l1.77,1.78-4.05,4.09-2.54-2.57,3.28-3.31ZM44.72,5.65l2.54,2.57-5.33,5.38-2.55-2.57,5.33-5.38ZM35.3,16.76c-.43-.43-.43-1.16,0-1.6l3.26-3.29,2.55,2.57-4.05,4.09-1.76-1.78ZM39.42,20.93s0,0-.01-.01c0,0,0,0,0,0l-1.53-1.54,4.05-4.09,3.36,3.4-4.05,4.09-1.82-1.84ZM45.42,25.39c-.41.41-1.16.41-1.57,0l-1.77-1.78,4.05-4.09,2.55,2.57-3.26,3.3ZM49.51,21.25l-2.54-2.57,5.33-5.38,2.54,2.56-5.32,5.39ZM58.93,11.72l-3.27,3.3-2.53-2.56,4.05-4.09,1.75,1.77c.21.21.33.49.33.78s-.12.57-.34.79Z"/></svg>