<?xml version="1.0" encoding="UTF-8"?><svg id="a" xmlns="http://www.w3.org/2000/svg" viewBox="0 0 279.6 194.25"><defs><style>.b{fill:#333;stroke-width:0px;}</style></defs><path class="b" d="M256.05,168.88H23.55c-2.09,0-3.79-1.7-3.79-3.79v-72.25c0-6.18,2.99-12.04,8-15.66l7.38-5.34c.65-.47,1.42-.72,2.22-.72h204.87c.8,0,1.57.25,2.22.72l7.39,5.34c5.01,3.62,8,9.47,8,15.66v72.25c0,2.09-1.7,3.79-3.79,3.79ZM27.34,161.3h224.91v-68.46c0-3.76-1.82-7.31-4.86-9.51l-6.39-4.62H38.59l-6.39,4.62c-3.04,2.2-4.86,5.75-4.86,9.51v68.46Z"/><path class="b" d="M62.79,194.25H30.58c-5.97,0-10.82-4.85-10.82-10.82v-18.34c0-2.09,1.7-3.79,3.79-3.79h46.27c2.09,0,3.79,1.7,3.79,3.79v18.34c0,5.97-4.85,10.82-10.82,10.82ZM27.34,168.88v14.55c0,1.78,1.45,3.24,3.24,3.24h32.21c1.78,0,3.24-1.45,3.24-3.24v-14.55H27.34Z"/><path class="b" d="M249.02,194.25h-32.21c-5.97,0-10.82-4.85-10.82-10.82v-18.34c0-2.09,1.7-3.79,3.79-3.79h46.27c2.09,0,3.79,1.7,3.79,3.79v18.34c0,5.97-4.85,10.82-10.82,10.82ZM213.57,168.88v14.55c0,1.78,1.45,3.24,3.23,3.24h32.21c1.78,0,3.24-1.45,3.24-3.24v-14.55h-38.68Z"/><path class="b" d="M241.15,78.71H38.44c-1.23,0-2.39-.6-3.1-1.61-.71-1.01-.89-2.3-.47-3.46l18.67-52.49C58.05,8.5,70.1,0,83.53,0h112.54c13.43,0,25.48,8.5,29.98,21.16l18.68,52.49c.41,1.16.24,2.45-.47,3.46-.71,1.01-1.87,1.61-3.1,1.61ZM43.82,71.12h191.96l-16.87-47.43c-3.43-9.64-12.61-16.11-22.84-16.11h-112.54c-10.23,0-19.41,6.48-22.84,16.11l-16.87,47.43Z"/><path class="b" d="M38.44,78.71h-18.7c-8.35,0-15.59-5.37-18-13.37l-1.29-4.26c-.96-3.18-.38-6.53,1.6-9.2,1.98-2.67,5.02-4.2,8.34-4.2h9.81c8.35,0,15.59,5.37,18,13.37l3.86,12.77c.35,1.15.13,2.39-.59,3.36-.72.96-1.84,1.53-3.04,1.53ZM10.4,55.27c-.9,0-1.72.41-2.26,1.13-.54.72-.69,1.63-.43,2.49l1.29,4.26c1.44,4.77,5.76,7.98,10.74,7.98h13.59l-2.38-7.88c-1.44-4.77-5.76-7.98-10.74-7.98h-9.81Z"/><path class="b" d="M259.85,78.71h-18.7c-1.2,0-2.33-.57-3.04-1.53-.72-.96-.93-2.21-.59-3.36l3.86-12.77c2.42-7.99,9.65-13.37,18-13.37h9.81c3.32,0,6.36,1.53,8.34,4.2,1.98,2.67,2.56,6.02,1.6,9.2l-1.29,4.26c-2.42,7.99-9.65,13.37-18,13.37ZM246.26,71.12h13.59c4.98,0,9.3-3.21,10.74-7.98l1.29-4.26c.26-.86.1-1.77-.43-2.49-.54-.72-1.36-1.13-2.25-1.13h-9.81c-4.98,0-9.3,3.21-10.74,7.98l-2.38,7.88Z"/><path class="b" d="M64.04,124.06h-11.17c-9.87,0-17.9-8.03-17.9-17.9,0-2.51,1.08-4.91,2.96-6.58,1.88-1.67,4.4-2.45,6.89-2.14l32.93,4.05c2.89.35,5.3,2.16,6.45,4.84,1.15,2.67.81,5.67-.92,8.01-4.49,6.08-11.68,9.71-19.23,9.71ZM43.74,104.97c-.38,0-.65.18-.78.3-.15.13-.4.43-.4.89,0,5.69,4.63,10.31,10.31,10.31h11.17c5.16,0,10.07-2.48,13.13-6.63.04-.06.17-.24.06-.51-.12-.27-.34-.3-.41-.31l-32.93-4.05h0c-.05,0-.1,0-.15,0Z"/><path class="b" d="M226.73,124.06h-11.17c-7.56,0-14.75-3.63-19.23-9.71-1.73-2.34-2.07-5.34-.92-8.01,1.15-2.67,3.56-4.48,6.45-4.84l32.93-4.05c2.49-.31,5,.47,6.89,2.14,1.88,1.67,2.96,4.06,2.96,6.58,0,9.87-8.03,17.9-17.9,17.9ZM235.7,104.98l-32.93,4.05c-.07,0-.29.04-.41.31-.12.27.02.45.06.51,3.06,4.15,7.97,6.63,13.13,6.63h11.17c5.69,0,10.31-4.63,10.31-10.31,0-.47-.25-.76-.4-.89-.15-.13-.47-.35-.94-.29h0ZM235.24,101.21h.02-.02Z"/><path class="b" d="M192.84,168.88h-105.76c-1.46,0-2.79-.84-3.42-2.15-.63-1.32-.45-2.88.46-4.01l8.09-10.07c6.32-7.87,15.73-12.38,25.82-12.38h43.86c10.09,0,19.5,4.51,25.82,12.38l8.09,10.07c.91,1.14,1.09,2.7.46,4.01-.63,1.32-1.96,2.15-3.42,2.15ZM94.99,161.3h89.94l-3.14-3.91c-4.87-6.07-12.12-9.54-19.9-9.54h-43.86c-7.78,0-15.03,3.48-19.9,9.54l-3.14,3.91Z"/><path class="b" d="M165.14,118.95h-50.37c-2.09,0-3.79-1.7-3.79-3.79s1.7-3.79,3.79-3.79h50.37c2.09,0,3.79,1.7,3.79,3.79s-1.7,3.79-3.79,3.79Z"/></svg>