<?xml version="1.0" encoding="UTF-8"?><svg id="a" xmlns="http://www.w3.org/2000/svg" viewBox="0 0 64 62"><defs><style>.z{fill:none;stroke:#333;stroke-linecap:round;stroke-linejoin:round;stroke-width:2px;}</style></defs><g id="b"><g id="c"><path id="d" class="z" d="M48,45c0,8.84-7.16,16-16,16s-16-7.16-16-16,7.16-16,16-16,16,7.16,16,16Z"/><g id="e"><path id="f" class="z" d="M46,37h6v16h-6"/><path id="g" class="z" d="M52,40h6"/><path id="h" class="z" d="M52,50h6"/><path id="i" class="z" d="M63,29h-5v32h5V29Z"/></g><g id="j"><path id="k" class="z" d="M18,37h-6v16h6"/><path id="l" class="z" d="M12,40h-6"/><path id="m" class="z" d="M12,50h-6"/><path id="n" class="z" d="M1,29h5v32H1V29Z"/></g><path id="o" class="z" d="M24,31v-6h16v6"/></g><circle id="p" class="z" cx="32" cy="11" r="10"/><path id="q" class="z" d="M30,25v-4.2"/><path id="r" class="z" d="M34,25v-4.2"/><path id="s" class="z" d="M32,4v-1"/><path id="t" class="z" d="M32,17v-1"/><path id="u" class="z" d="M38,10h1"/><path id="v" class="z" d="M25.01,10h1"/><path id="w" class="z" d="M32,10l4-4"/><path id="x" class="z" d="M32,34c6.08,0,11,4.92,11,11"/><path id="y" class="z" d="M32,56c-6.08,0-11-4.92-11-11"/></g></svg>