<?xml version="1.0" encoding="UTF-8"?><svg id="a" xmlns="http://www.w3.org/2000/svg" viewBox="0 0 74.03 77.03"><defs><style>.b{stroke:#fff;stroke-width:6px;}.b,.c{stroke-linecap:round;}.b,.c,.d{fill:none;stroke-linejoin:round;}.c,.d{stroke:#000;stroke-width:1.8px;}</style></defs><line class="c" x1="56.8" y1="38.79" x2="56.8" y2="51.37"/><line class="c" x1="71.03" y1="38.79" x2="71.03" y2="62.58"/><line class="c" x1="20.2" y1="3" x2="70.63" y2="17.54"/><line class="d" x1="64.16" y1="27.54" x2="64.16" y2="20.54"/><line class="c" x1="71.03" y1="30.54" x2="57.29" y2="30.54"/><line class="b" x1="20.2" y1="3" x2="20.2" y2="71.03"/><line class="c" x1="20.2" y1="3" x2="20.2" y2="71.03"/><polyline class="d" points="9.69 20.88 9.69 27.57 3 27.57 3 20.88"/><line class="b" x1="3" y1="17.54" x2="70.63" y2="17.54"/><line class="c" x1="3" y1="17.54" x2="70.63" y2="17.54"/><polyline class="b" points="28.35 73.79 28.35 38.79 42.58 38.79 42.58 51.37 56.8 51.37 56.8 62.58 71.03 62.58 71.03 74.03"/><polyline class="c" points="28.35 70.79 28.35 38.79 42.58 38.79 42.58 51.37 56.8 51.37 56.8 62.58 71.03 62.58 71.03 71.03"/><line class="c" x1="35.46" y1="45.63" x2="35.46" y2="48.37"/><line class="c" x1="35.46" y1="56.84" x2="35.46" y2="59.58"/><line class="c" x1="35.46" y1="68.05" x2="35.46" y2="70.79"/><line class="c" x1="49.69" y1="56.84" x2="49.69" y2="59.58"/><line class="c" x1="49.69" y1="68.05" x2="49.69" y2="70.79"/><line class="c" x1="63.92" y1="68.05" x2="63.92" y2="70.79"/></svg>