<?xml version="1.0" encoding="UTF-8"?><svg id="a" xmlns="http://www.w3.org/2000/svg" viewBox="0 0 246.91 247.08"><defs><style>.b{fill:none;stroke:#231f20;stroke-linecap:round;stroke-linejoin:round;stroke-width:7px;}</style></defs><path class="b" d="M52.35,236.08l-41.53-41.53h0c12.5-4.16,23.86-11.17,33.17-20.49L194.73,23.33c8.32-8.32,18.32-14.76,29.34-18.89h0c11.48-4.3,22.7,6.91,18.39,18.39h0c-4.13,11.02-10.57,21.02-18.88,29.33L72.84,202.91c-9.32,9.32-16.33,20.67-20.49,33.17h0Z"/><polyline class="b" points="103.37 173.65 106.24 226.32 88.99 243.58 70.39 224.98"/><polyline class="b" points="20.12 174.72 3.5 158.1 20.75 140.83 73.42 143.71"/><polyline class="b" points="212.67 81.81 219.16 102.11 211.27 110 188.81 87.54"/><polyline class="b" points="143.17 132.78 151 157.28 145.32 162.96 138.29 155.93"/><polyline class="b" points="102.11 99.29 88.73 95.01 83.05 100.7 99.22 116.86"/><polyline class="b" points="179.13 38.92 145.09 28.04 137.2 35.93 148.57 47.3"/><line class="b" x1="89.78" y1="129.89" x2="117.18" y2="157.3"/><line class="b" x1="143.41" y1="75.92" x2="164.79" y2="97.3"/><line class="b" x1="137.95" y1="95.91" x2="158.9" y2="116.85"/><path class="b" d="M200.85,17.81c4.2,13.48,15.61,23.79,29.72,26.4"/></svg>