<?xml version="1.0" encoding="UTF-8"?><svg id="a" xmlns="http://www.w3.org/2000/svg" viewBox="0 0 247.87 247.87"><defs><style>.b{fill:#231f20;stroke-width:0px;}</style></defs><path class="b" d="M85.13,139.11c0-2.21,1.8-4.01,4.01-4.01s4.02,1.8,4.02,4.01-1.8,4.02-4.02,4.02-4.01-1.8-4.01-4.02M40.1,128.42c2.21,0,4.01-1.8,4.01-4.01s-1.8-4.02-4.01-4.02-4.02,1.8-4.02,4.02,1.8,4.01,4.02,4.01M79.33,128.42c2.22,0,4.02-1.8,4.02-4.01s-1.8-4.02-4.02-4.02-4.01,1.8-4.01,4.02,1.8,4.01,4.01,4.01M30.29,143.13c2.21,0,4.01-1.8,4.01-4.02s-1.8-4.01-4.01-4.01-4.02,1.8-4.02,4.01,1.8,4.02,4.02,4.02M49.91,143.13c2.21,0,4.01-1.8,4.01-4.02s-1.8-4.01-4.01-4.01-4.02,1.8-4.02,4.01,1.8,4.02,4.02,4.02M69.52,143.13c2.22,0,4.02-1.8,4.02-4.02s-1.8-4.01-4.02-4.01-4.01,1.8-4.01,4.01,1.8,4.02,4.01,4.02M59.71,128.42c2.22,0,4.02-1.8,4.02-4.01s-1.8-4.02-4.02-4.02-4.01,1.8-4.01,4.02,1.8,4.01,4.01,4.01M222.65,188.76c0,10.69-8.7,19.39-19.4,19.39h-24.41c-10.69,0-19.4-8.7-19.4-19.39s8.71-19.4,19.4-19.4h24.41c10.7,0,19.4,8.7,19.4,19.4M215.62,188.76c0-6.83-5.55-12.38-12.37-12.38h-24.41c-6.82,0-12.37,5.55-12.37,12.38s5.55,12.37,12.37,12.37h24.41c6.82,0,12.37-5.55,12.37-12.37M247.86,124.23l-10.03,120.42c-.16,1.82-1.68,3.22-3.5,3.22h-86.56c-1.83,0-3.35-1.4-3.5-3.22l-3.15-37.82h-23.29c-.64,1.44-1.46,2.77-2.42,3.99h.5c1.94,0,3.52,1.57,3.52,3.51v17.48c0,8.86-7.21,16.06-16.06,16.06H16.06c-8.85,0-16.06-7.2-16.06-16.06v-17.48c0-1.94,1.58-3.51,3.52-3.51h.5c-2.51-3.16-4.02-7.16-4.02-11.5,0-6.17,3.03-11.64,7.69-15.01-4.66-3.37-7.69-8.85-7.69-15.02,0-4.34,1.51-8.34,4.02-11.5h-.5c-1.94,0-3.52-1.57-3.52-3.51v-15.01c0-18.5,15.05-33.54,33.54-33.54h41.05l-2.47-38.46h-7.91c-1.94,0-3.51-1.57-3.51-3.51v-11.78c0-8.43,6.86-15.29,15.29-15.29h37.19V3.51c0-1.94,1.57-3.51,3.51-3.51h14.5c1.94,0,3.51,1.57,3.51,3.51v33.18h37.19c8.43,0,15.29,6.86,15.29,15.29v11.78c0,1.94-1.57,3.51-3.51,3.51h-7.91l-2.05,31.85h2.11c1.94,0,3.51,1.58,3.51,3.52v5.79h8.2v-13.25c0-1.94,1.58-3.51,3.52-3.51h11.71v-10.57c0-1.94,1.58-3.51,3.52-3.51h15.23c1.94,0,3.51,1.57,3.51,3.51v19.96h11.72c1.94,0,3.51,1.57,3.51,3.51v15.85h4.11c.98,0,1.92.41,2.59,1.14.66.72.99,1.69.91,2.67M225.02,108.08v12.36c.08,0,.15-.02.23-.02h7.97v-12.34h-8.2ZM209.79,84.61v54.18h2.83l5.37-9.31v-44.87h-8.2ZM194.56,138.79h8.21v-40.09h-8.21v40.09ZM179.33,138.79h8.21v-23.33h-8.21v23.33ZM157.07,93.35h-8.2v27.07h7.98c.07,0,.15.01.22.02v-27.09ZM164.1,129.48l5.38,9.31h2.82v-32.64h-8.2v23.33ZM120.2,36.69h7.47V7.03h-7.47v29.66ZM67.72,60.25h112.43v-8.27c0-4.56-3.7-8.27-8.26-8.27h-95.9c-4.56,0-8.27,3.71-8.27,8.27v8.27ZM7.03,150.77h105.37v-11.5c0-14.62-11.89-26.52-26.51-26.52h-52.35c-14.62,0-26.51,11.9-26.51,26.52v11.5ZM27.01,157.79l10.63,10.64,10.64-10.64h-21.27ZM18.53,180.79h82.37c6.34,0,11.5-5.15,11.5-11.5s-5.16-11.5-11.5-11.5h-42.69l-18.08,18.09c-.69.68-1.59,1.03-2.49,1.03s-1.8-.35-2.48-1.03l-18-18c-5.7.68-10.13,5.54-10.13,11.41,0,6.35,5.16,11.5,11.5,11.5M49.08,187.82l10.63,10.63,10.64-10.63h-21.27ZM112.4,217.85H7.03v13.96c0,4.98,4.05,9.04,9.03,9.04h87.31c4.98,0,9.03-4.06,9.03-9.04v-13.96ZM100.9,210.82c6.34,0,11.5-5.16,11.5-11.5s-5.16-11.5-11.5-11.5h-20.62l-18.08,18.08c-.69.69-1.59,1.03-2.49,1.03s-1.79-.34-2.48-1.03l-18.08-18.08h-20.62c-6.34,0-11.5,5.16-11.5,11.5s5.16,11.5,11.5,11.5h82.37ZM140.53,199.81l-6.3-75.58c-.08-.98.25-1.95.92-2.67.66-.73,1.6-1.14,2.58-1.14h4.11v-30.59c0-1.94,1.58-3.51,3.52-3.51h15.23c1.94,0,3.51,1.57,3.51,3.51v9.29h2.57l2.05-31.85h-89.56l2.47,38.46h4.26c18.49,0,33.54,15.04,33.54,33.54v15.01c0,1.94-1.58,3.51-3.52,3.51h-.5c2.51,3.16,4.02,7.16,4.02,11.5,0,6.17-3.04,11.65-7.69,15.02,4.65,3.37,7.69,8.84,7.69,15.01,0,.16-.01.32-.02.49h21.12ZM240.54,127.45h-13.26l-9.59,16.61c-.63,1.08-1.79,1.75-3.04,1.75h-47.2c-1.26,0-2.42-.67-3.04-1.75l-9.59-16.61h-13.27l9.45,113.4h80.09l9.45-113.4Z"/></svg>