<?xml version="1.0" encoding="UTF-8"?><svg xmlns="http://www.w3.org/2000/svg" viewBox="0 0 644.06 234.38"><defs><style>.d{fill:#000;}.d,.e,.f{stroke-width:0px;}.e{fill:#1b75bb;}.f{fill:#fff;}</style></defs><g id="a"><path class="f" d="M103.41,227.37l-1.4-.65-.33-.15c-.46-.2-1.09-.47-1.78-.87-4.98-2.9-7.23-7.92-6.17-13.79.19-1.04.35-2.09.51-3.14.43-2.78.87-5.65,1.76-8.59.45-1.5.94-2.97,1.42-4.39,1.2-3.59,2.34-6.99,2.62-10.27.25-2.83.24-5.74.24-8.83,0-1.03,0-2.05,0-3.08.03-3.91.03-7.81.02-11.72v-2.77c0-.61.01-1.22.03-1.83.03-1.1.06-2.15-.05-2.88-.32-2.11-.72-4.21-1.15-6.44-.11-.59-.23-1.19-.34-1.8-1.62-.21-3.08-.69-4.4-1.45-.13,0-.26,0-.38,0-1.37,0-2.43-.37-2.95-.55l.09.02c-.2-.06-.38-.12-.56-.18-.66.27-1.38.61-2.11.95l-.27.12c-1.14.53-2.26,1.1-3.39,1.67-1.63.82-3.31,1.67-5.09,2.46-3.05,1.35-6.14,2.66-9.14,3.93-2.44,1.03-4.88,2.07-7.31,3.13-4.51,1.96-9.42,4.16-15.02,6.7-1.73.79-3.45,1.6-5.18,2.41-2.82,1.33-5.73,2.7-8.7,3.97-1.84.79-3.72,1.19-5.59,1.19-3.32,0-6.53-1.28-9.28-3.69-1.99-1.75-3.14-3.71-3.98-5.13-.23-.39-.45-.78-.7-1.15-3.52-5.27-5.42-10.99-7.09-16.04-.07-.2-.14-.41-.22-.62l-.54-1.54v-2.46l.1-.59c.8-4.68,3.62-8.49,8.13-11,2.62-1.46,5.29-2.81,7.86-4.11,1.66-.84,3.32-1.68,4.96-2.54,3.01-1.59,6-3.2,9-4.81,2.85-1.53,5.7-3.06,8.55-4.58,1.42-.75,2.83-1.44,4.2-2.1,1.02-.5,2.04-.99,3.05-1.51,2.35-1.21,4.44-2.32,6.37-3.41.69-.39,1.42-.84,2.19-1.32.75-.47,1.49-.93,2.25-1.37.74-.43,1.5-.84,2.26-1.25.8-.44,1.58-.86,2.28-1.28.19-.31.43-.68.72-1.07l.23-.32c.44-.61,1.05-1.45,1.92-2.29.31-.29.66-.62.85-.84.49-1.99,1.56-3.92,3.19-5.73,3.17-3.52,7.15-6.51,12.18-9.13,1.9-.99,3.8-1.88,5.64-2.75,1.12-.53,2.24-1.05,3.35-1.59,2.96-1.45,5.92-2.92,8.88-4.38,4.77-2.36,9.55-4.72,14.34-7.04,5.45-2.65,12.64-6.11,19.91-9.45,3.05-1.4,6.4-2.08,10.25-2.08.03,0,.06,0,.09,0l.22-.74h4.19c.32-.16.64-.31.96-.47.62-.51,1.54-1.12,2.78-1.46.57-.16,1.09-.25,1.49-.3,4.29-2.12,8.56-4.25,12.83-6.39l4.28-2.14.05-.03c.63-.37,1.94-1.14,3.79-1.33,2.22-.22,3.86-.68,5.31-1.47,2.92-1.6,6.13-3.08,9.53-4.41,1.62-.63,3.25-.95,4.84-.95,3.24,0,6.13,1.32,8.16,3.73.99,1.18,1.92,2.38,2.8,3.59,1.53-.58,3.12-.87,4.78-.87,3.57,0,6.57,1.34,9.03,2.66,3.68,1.97,6.02,5.74,6.42,10.34.46,5.21-1.64,10.32-5.48,13.35-.53.41-1.06.79-1.58,1.14.3,1.16.6,2.32.9,3.48,1.28,5.04-1.37,11.29-5.78,13.66-1.47.79-2.93,1.47-4.33,2.12-.74.35-1.49.69-2.22,1.05-.47.23-.94.45-1.41.67-1.15.54-2.24,1.06-3.07,1.6-.19.12-.65.55-.98.86-.95.89-2.26,2.1-4.04,3.01-4.8,2.44-9.68,4.83-14.43,7.15,2.08-.42,4.2-.62,6.38-.62,4.75,0,9.43.01,14.12.01h16.76c.02-.12.05-.23.08-.34.79-3.5,1.59-7,2.39-10.51,1.19-5.21,2.38-10.42,3.55-15.63,1.78-7.94,3.67-16.5,5.95-26.95,1.47-6.75,6-10.46,12.77-10.46h77.97s.44,0,.44,0c.29,0,.58,0,.87.03,3.64.26,7.11,2.16,9.28,5.08,1.77,2.38,2.56,5.24,2.31,8.21h58.3c19.93,0,39.86,0,59.79-.01,10.68,0,18.64,5.13,23.03,14.83,1.88,4.15,2.6,8.33,2.14,12.4-.28,2.49-.79,4.81-1.28,7.05-.13.58-.26,1.17-.38,1.75-.96,4.56-1.93,9.11-2.9,13.67l-3.02,14.19h145.42c.74,0,1.47,0,2.21,0,3.6.07,7.01,1.8,9.37,4.77,2.32,2.92,3.22,6.58,2.48,10.03-1.4,6.53-2.95,13.56-4.72,21.5-.87,3.9-1.72,7.58-2.51,11.05-.86,3.75-1.66,7.25-2.38,10.5-1.5,6.76-2.96,13.54-4.42,20.31l-1.51,7c-.43,2.01-.87,4.03-1.3,6.04-.6,2.81-1.21,5.63-1.82,8.44l-.14.64c-.77,3.62-2.2,10.37-9.82,12.87l-1.06.35H103.41ZM159.5,121.34c0,3.74-.14,7.45-.28,11.06.72-2.99,1.54-6.04,2.76-9.08.65-1.62,1.44-3.17,2.36-4.68-.57.31-1.13.59-1.65.86-.9.45-1.74.88-2.36,1.3-.29.2-.57.37-.84.53Z"/><path class="d" d="M200.05,40.65c1.04,0,2.05.34,2.81,1.24,2.1,2.49,3.92,5.22,5.95,7.98.83-.4,2.08-.84,3.16-1.56,1.3-.87,2.58-1.21,3.83-1.21,2,0,3.93.87,5.73,1.83,3.79,2.02,3.67,9.06-.09,12.02-1.73,1.36-3.79,2.31-5.37,3.25.76,2.91,1.52,5.74,2.24,8.58.47,1.86-.67,4.89-2.3,5.77-2.06,1.1-4.22,2.03-6.32,3.06-1.76.86-3.59,1.63-5.22,2.69-1.56,1.02-2.76,2.67-4.39,3.51-7.48,3.81-15.06,7.42-22.59,11.13-1.78.87-3.81,1.51-4.21,3.89-.03.15-.11.33-.22.43-3.33,2.69-6.58,5.5-10.04,8.01-2.03,1.47-4.49,2.33-6.57,3.74-1.7,1.15-3.97,1.65-3.93,4.76.09,7.08-.43,14.16-.54,21.24-.08,4.91.11,9.82.2,14.73.07,3.83.16,7.66.27,11.49.07,2.49.16,4.99.31,7.48.1,1.55.33,3.1.49,4.59h13.28c-1.3-1.94-2.83-3.77-3.86-5.85-2.94-5.89-2.82-12.03-1.25-18.32,1.47-5.94,2.51-11.99,3.9-17.96.88-3.79,1.73-7.64,3.18-11.23,1.96-4.83,5.39-8.71,9.5-11.94,5.05-3.97,10.66-6.43,17.21-6.43.02,0,.03,0,.05,0,4.75,0,9.49.01,14.24.01,6.86,0,13.72,0,20.57,0h1.7c.43-2.07.79-3.94,1.21-5.79,1.98-8.72,3.99-17.43,5.95-26.16,2.02-8.99,3.99-17.99,5.95-26.99.77-3.52,2.42-4.95,5.93-4.95,14.4,0,28.81,0,43.21,0,11.52,0,23.05,0,34.57,0,.21,0,.42,0,.62,0,.13,0,.25,0,.37.01,2.67.19,5.86,2.61,4.97,6.56-.5,2.2-.86,4.42-1.3,6.75h2.08c21.32,0,42.65,0,63.97,0,20.15,0,40.3,0,60.45-.01h.01c7.89,0,13.42,3.61,16.64,10.72,1.24,2.73,1.9,5.72,1.57,8.73-.31,2.74-.98,5.44-1.55,8.15-1.38,6.58-2.8,13.15-4.19,19.73-1.16,5.46-2.32,10.91-3.52,16.57h2.25c49.47,0,98.94,0,148.4,0,1.13,0,2.27-.01,3.4-.01.7,0,1.39,0,2.09.02,3.08.06,5.77,3.33,5.12,6.33-1.54,7.15-3.11,14.3-4.71,21.44-1.82,8.15-3.51,15.32-4.89,21.56-2.01,9.1-3.96,18.22-5.93,27.33-1.04,4.82-2.06,9.65-3.11,14.47-.75,3.42-1.24,7.02-5.3,8.35H104.95c-.51-.24-1.05-.44-1.53-.72-2.53-1.47-3.3-3.72-2.8-6.49.66-3.66,1.02-7.42,2.08-10.95,1.6-5.32,3.83-10.49,4.31-16.07.36-4.13.24-8.3.28-12.46.04-4.85.02-9.7.01-14.56,0-1.92.18-3.87-.1-5.75-.61-4.05-1.52-8.05-2.19-12.1-.29-1.78-.29-2.13-1.38-2.13-.29,0-.65.02-1.11.05-.61.04-1.23.09-1.84.09-1.22,0-2.42-.2-3.48-1.11-.57-.49-1.17-.87-1.84-.87-.37,0-.76.11-1.18.38-.05.03-.11.05-.19.05-.26,0-.63-.17-.92-.25-.8-.23-1.68-.79-2.42-.79-.1,0-.21.01-.3.04-1.77.44-3.46,1.26-5.13,2.04-2.8,1.31-5.51,2.81-8.33,4.06-5.45,2.41-10.96,4.66-16.42,7.04-5.06,2.21-10.1,4.46-15.13,6.75-4.59,2.09-9.1,4.34-13.74,6.32-.96.41-1.9.62-2.83.62-1.61,0-3.16-.63-4.65-1.95-1.62-1.42-2.36-3.25-3.48-4.92-2.95-4.42-4.62-9.38-6.26-14.35-.13-.39-.27-.77-.4-1.15v-.67c.49-2.83,2.3-4.77,4.64-6.07,4.16-2.32,8.48-4.35,12.69-6.58,5.87-3.1,11.69-6.28,17.56-9.39,2.36-1.25,4.8-2.36,7.17-3.58,2.22-1.14,4.42-2.31,6.6-3.53,1.54-.86,3-1.86,4.53-2.75,1.89-1.1,3.88-2.05,5.7-3.26.72-.48,1.1-1.47,1.66-2.22.44-.59.85-1.22,1.37-1.72,1.23-1.18,2.42-2.29,2.79-4.12.21-1.02.9-2.04,1.62-2.84,2.89-3.21,6.41-5.62,10.22-7.61,2.9-1.51,5.89-2.82,8.83-4.26,7.73-3.8,15.44-7.65,23.19-11.41,6.56-3.19,13.14-6.34,19.77-9.38,2.33-1.07,4.81-1.44,7.32-1.44.88,0,1.77.05,2.66.12.54.05,1.1.24,1.59.24.53,0,.99-.23,1.27-1.1,0,0,0,0,0,0,.03,0,.23.09.35.09.02,0,.04,0,.06-.01,1.17-.55,2.34-1.11,3.49-1.7.27-.14.44-.49.71-.57.62-.17,1.35-.09,1.91-.37,6.02-2.97,12.02-5.98,18.02-8.98.44-.22.87-.57,1.33-.61,2.8-.28,5.45-.92,7.98-2.3,2.8-1.53,5.74-2.87,8.72-4.03.73-.28,1.52-.47,2.29-.47M200.05,26.65c-2.48,0-4.96.48-7.39,1.43-3.68,1.44-7.15,3.05-10.34,4.79-.37.2-1.05.49-2.65.65-3.2.32-5.49,1.59-6.49,2.17l-3.95,1.98c-3.93,1.97-7.98,3.99-11.99,5.97-.37.07-.77.17-1.19.28-1.35.38-2.62.94-3.8,1.68h-7.61l-.33,1.14c-2.77.43-5.38,1.21-7.8,2.32-7.39,3.39-14.59,6.87-20.05,9.51-4.8,2.33-9.64,4.72-14.32,7.04-2.97,1.47-5.95,2.94-8.93,4.4-1.07.53-2.16,1.04-3.24,1.54-1.9.89-3.87,1.82-5.89,2.87-5.78,3.02-10.41,6.5-14.15,10.65-1.87,2.07-3.25,4.3-4.14,6.65-1.09,1.11-1.84,2.15-2.31,2.8l-.15.2c-.24.13-.5.27-.75.41-.74.4-1.57.85-2.43,1.35-.89.52-1.71,1.03-2.44,1.48-.7.44-1.36.85-1.91,1.16-1.84,1.03-3.85,2.1-6.15,3.28-.92.47-1.89.94-2.91,1.44-1.42.69-2.89,1.41-4.42,2.22-2.86,1.51-5.71,3.05-8.56,4.58-2.95,1.59-6,3.22-8.99,4.8-1.57.83-3.17,1.64-4.86,2.49-2.64,1.33-5.36,2.71-8.11,4.24-6.34,3.53-10.46,9.19-11.62,15.93l-.2,1.18v4.25l.79,2.25.15.43c.06.16.12.32.17.49,1.72,5.2,3.87,11.67,7.91,17.73.1.15.31.5.49.81.96,1.63,2.56,4.35,5.39,6.84,4.04,3.56,8.85,5.44,13.9,5.44,2.82,0,5.63-.59,8.34-1.75,3.08-1.32,6.05-2.72,8.93-4.08,1.75-.83,3.41-1.61,5.08-2.37,5.68-2.58,10.42-4.7,14.93-6.66,2.38-1.04,4.85-2.09,7.24-3.1,3.02-1.28,6.14-2.6,9.24-3.97,1.94-.86,3.71-1.75,5.41-2.61,1.11-.56,2.17-1.09,3.18-1.57.45.09.94.16,1.46.21.03.01.06.03.1.04.24,1.26.45,2.49.63,3.69.02.31,0,1.12-.01,1.72-.02.68-.03,1.35-.03,2.03v2.78c.01,3.83.02,7.79-.01,11.65,0,1.05,0,2.09,0,3.14,0,2.93,0,5.7-.22,8.22-.21,2.46-1.18,5.33-2.29,8.66-.49,1.47-1,2.99-1.48,4.59-1.03,3.41-1.53,6.67-1.97,9.55-.16,1.05-.31,2.04-.48,2.96-1.56,8.67,2.09,16.75,9.53,21.08,1.05.61,1.97,1.01,2.52,1.25l.19.08,2.8,1.3h3.07s501.06,0,501.06,0h2.23l2.12-.7c11.45-3.75,13.66-14.15,14.49-18.06l.13-.61c.61-2.78,1.2-5.57,1.8-8.36.44-2.04.88-4.09,1.32-6.13l1.49-6.92c1.44-6.68,2.93-13.59,4.42-20.35.71-3.2,1.51-6.7,2.36-10.41.8-3.48,1.65-7.19,2.52-11.11,1.78-7.93,3.32-14.99,4.74-21.56,1.18-5.51-.22-11.29-3.84-15.85-3.66-4.61-9.02-7.31-14.72-7.41-.78-.01-1.56-.02-2.34-.02-.59,0-1.18,0-1.77,0-.55,0-1.09,0-1.64,0h-133.37s1.25-5.86,1.25-5.86c.97-4.52,1.93-9.04,2.88-13.56.12-.56.24-1.12.36-1.69.5-2.31,1.08-4.92,1.4-7.78.6-5.34-.32-10.75-2.72-16.07-5.53-12.22-15.97-18.95-29.39-18.95-20.17.01-40.31.01-60.46.01h-31.98s-19.54,0-19.54,0c-.63-1.91-1.57-3.72-2.8-5.38-3.37-4.54-8.75-7.49-14.4-7.89-.44-.03-.89-.05-1.37-.05-.19,0-.38,0-.57,0h-.09s-34.53,0-34.53,0h-43.21c-8.16,0-14.52,3.9-17.8,10.68-1.39-1.51-3.03-2.79-4.86-3.77-3.04-1.62-7.18-3.49-12.33-3.49-.65,0-1.31.03-1.95.09-.09-.11-.18-.22-.27-.33-3.33-3.95-8.25-6.21-13.51-6.21h0ZM217.1,93.58c.27-.13.54-.25.81-.38.92-.43,1.92-.89,2.95-1.41-.14.6-.27,1.19-.41,1.79h-.71s-2.65,0-2.65,0h0Z"/></g><g id="b"><path class="d" d="M610.89,184.83c-2.28,10.26-4.51,20.25-6.74,30.3H105.01c.43-2.33.68-4.57,1.28-6.71,1.34-4.8,2.96-9.52,4.27-14.32,1.33-4.88,1.81-9.88,1.73-14.96-.11-6.37.11-12.75.17-19.13.05-5.35-.69-10.6-1.82-15.83-.64-2.94-.62-6.03-.77-9.06-.11-2.21-.1-2.26-2.25-2-1.93.23-3.86.36-5.8.51-1.78.14-3.14-.39-3.68-2.29-.13-.46-.47-.86-.76-1.36-.47.19-.9.3-1.26.52-1.73,1.06-3.39,1.44-5.11-.11-.3-.27-1.17-.17-1.65.04-6.08,2.72-12.11,5.52-18.19,8.24-10.38,4.64-20.78,9.22-31.16,13.84-3.6,1.6-7.21,3.18-10.75,4.9-1.14.55-1.92.46-2.5-.55-1.81-3.17-3.65-6.33-5.28-9.59-.81-1.62-1.16-3.47-1.83-5.17-.46-1.19-.1-1.74,1-2.31,6.32-3.24,12.64-6.47,18.87-9.87,12.95-7.06,25.85-14.22,38.77-21.34.48-.26.93-.58,1.58-.98-1.57-1.87-.16-2.58,1.22-3.33.82-.45,1.6-.96,2.52-1.51-1.76-2.4-.11-3.94,1.36-5.34,3.52-3.36,7.66-5.82,12.04-7.9,5.36-2.54,10.65-5.22,15.99-7.81,6.13-2.98,12.27-5.95,18.43-8.86,4.2-1.99,8.41-3.95,12.69-5.75,1.45-.61,3.12-.77,4.71-.97,1.87-.24,3.55.15,4.54,2.3.49-.35,1.25-.65,1.25-.95.01-1.63,1.31-1.94,2.36-2.44,8.19-3.93,16.4-7.84,24.61-11.74.25-.12.52-.27.78-.27,4.98-.02,8.83-3.01,13.07-4.97,3.59-1.66,3.58-1.77,5.57,1.66,1.42,2.44,2.76,4.94,4.23,7.59,2.41-1.19,4.82-2.37,7.23-3.56,2.45-1.21,2.72-1.2,5.35.14-.19,2.12-1.07,3.62-3.22,4.46-2.41.95-4.68,2.25-7.04,3.41,1.16,2.61,2.46,5.07,3.36,7.67,1.85,5.3,1.46,4.2-2.48,6.29-1.71.91-3.58,1.52-5.25,2.49-1.7.99-3.18,2.35-4.86,3.38-2.11,1.3-4.29,2.51-6.51,3.62-6.69,3.36-13.4,6.67-20.12,9.98-.97.48-1.87,1.09-3.07.25-.69-.49-1.41.11-1.09.96.98,2.66-.48,4.23-2.39,5.54-3.47,2.39-6.96,4.74-10.52,6.99-2.39,1.51-4.93,2.76-7.35,4.22-.46.28-.94.99-.95,1.51-.24,15.53-.54,31.07-.54,46.6,0,7.81.58,15.62.9,23.59h464.21Z"/><path class="d" d="M328.64,49c-1.14,5.43-2.23,10.63-3.34,15.82-3.5,16.45-7.02,32.9-10.48,49.36-.23,1.08-.57,1.45-1.69,1.45-19.71-.03-39.42,0-59.13-.04-7.1-.01-13.28-5.68-14.56-12.93-.75-4.26.33-8.26,1.18-12.31,2.81-13.32,5.69-26.62,8.5-39.94.22-1.06.57-1.46,1.7-1.45,4.77.06,9.54.03,14.52.03-.8,3.81-1.55,7.47-2.33,11.13-2.36,11.1-4.75,22.19-7.09,33.29-.62,2.94,1.24,5.39,4.25,5.5,3.11.11,6.22,0,9.33.07.99.02,1.16-.51,1.32-1.29,3.31-15.7,6.64-31.4,9.98-47.1.1-.49.24-.96.37-1.51h15.85c-3.51,16.59-7.01,33.12-10.56,49.88,2.24,0,4.37,0,6.51,0,2.61,0,5.22-.04,7.83.02,1.01.03,1.46-.26,1.67-1.29,2.76-13.21,5.56-26.42,8.34-39.63.56-2.65,1.09-5.31,1.72-7.94.11-.44.7-1.07,1.07-1.07,4.93-.07,9.87-.05,15.05-.05Z"/><path class="d" d="M220.11,162.92c-1.22,5.68-2.39,11.13-3.57,16.65h-4.96c-10.27,0-20.54-.1-30.81.03-10.71.13-16.97-9.29-15.67-17.91,1.14-7.59,2.93-15.09,4.61-22.59.85-3.81,1.55-7.81,3.25-11.26,3.91-7.9,10.24-13.09,19.13-14.72.33-.06.66-.12.99-.12,11.1,0,22.2,0,33.56,0-.54,2.71-1.05,5.33-1.6,7.94-.49,2.33-1.17,4.63-1.47,6.98-.2,1.59-.93,1.78-2.28,1.78-9.16-.05-18.32-.03-27.48-.02-3.77,0-6.59,2.14-7.41,5.86-1.64,7.34-3.2,14.7-4.75,22.06-.54,2.55,1.21,4.93,3.81,5.29.66.09,1.33.06,2,.06,10.21,0,20.43,0,30.64,0h2.02Z"/><path class="d" d="M336.07,139.63c.95-4.54,1.86-8.91,2.78-13.36h7.25c8.22,0,16.43,0,24.65,0,7.83,0,13.88,6.9,12.47,14.63-1.56,8.54-3.49,17.01-5.27,25.51-.83,3.95-1.73,7.89-2.5,11.85-.2,1.05-.63,1.32-1.64,1.32-11.88-.03-23.76,0-35.64-.03-4.91-.02-9.3-3.92-10.37-9.2-1.15-5.65.43-10.66,3.95-15.07,3.01-3.77,6.68-6.64,11.6-7.52.7-.13,1.43-.16,2.15-.16,7.27-.01,14.54-.03,21.82.02,1.34,0,2.26-.14,2.27-1.76,0-.65.29-1.29.43-1.94.55-2.7-.73-4.28-3.51-4.28-9.49,0-18.98,0-28.48,0h-1.94ZM366.89,158.29c-1.31,0-2.31,0-3.3,0-5.99,0-11.98-.02-17.97.01-2.56.01-4.88,2.32-4.87,4.72.01,2.26,1.39,3.23,4.61,3.23,6.05,0,12.09,0,18.14,0h1.74c.56-2.73,1.08-5.21,1.64-7.96Z"/><path class="d" d="M237.06,166.41c-.79,3.59-1.53,6.92-2.25,10.25-.63,2.91-.62,2.91-3.64,2.91h-9.73c3.79-17.83,7.55-35.53,11.32-53.29h1.97c10.99,0,21.98,0,32.97,0,7.94,0,13.84,6.87,12.56,14.72-.52,3.22-1,6.48-1.95,9.58-2.55,8.35-8.06,13.76-16.74,15.48-2.17.43-4.5.06-6.76.06-.06.16-.12.32-.18.49,4.66,4.2,9.32,8.41,14.19,12.8-.61.07-1,.15-1.39.15-5.22,0-10.44.04-15.65-.03-.73-.01-1.61-.39-2.14-.9-3.66-3.48-7.24-7.04-10.85-10.57-.5-.49-1.03-.97-1.75-1.65ZM239.89,152.87c7.15,0,14.2.11,21.23-.06,2.48-.06,4.1-1.86,4.84-4.21.48-1.52.81-3.11,1.08-4.69.39-2.26-1.12-4.24-3.33-4.26-6.66-.06-13.32-.04-19.98.01-.4,0-1.08.46-1.16.81-.94,4.09-1.79,8.19-2.68,12.39Z"/><path class="d" d="M424.14,62.32c10.58,0,20.96-.01,31.33.01,2.15,0,4.35-.08,6.46.3,5.43.98,9.77,5.81,9.68,11.3-.06,3.88-.92,7.77-1.64,11.61-.86,4.62-1.92,9.2-2.94,13.79-1.77,7.97-8.74,14.66-16.77,16.11-.49.09-.99.15-1.48.15-11.65,0-23.31,0-34.96,0-.27,0-.54-.04-.97-.08,3.77-17.75,7.52-35.41,11.3-53.21ZM428.48,102.25c7.16,0,14.14.07,21.12-.04,2.47-.04,4.48-2.15,5.06-4.79.42-1.89.8-3.78,1.21-5.67.81-3.72,1.65-7.44,2.43-11.17.62-2.99-.93-4.88-3.95-4.89-2.94,0-5.88,0-8.82,0-3.76,0-7.53,0-11.4,0-1.88,8.85-3.74,17.6-5.65,26.56Z"/><path class="d" d="M474.49,179.56c-3.11,0-6.22-.12-9.33.02-8.06.36-13.86-6.55-12.82-14.3.73-5.47,2.12-10.85,3.24-16.26.55-2.65.95-5.37,1.82-7.92,2.72-7.96,8.21-12.98,16.51-14.72,1.01-.21,2.1-.11,3.15-.11,6,0,12,.18,17.99-.05,8.03-.3,14.22,6.79,12.78,15.16-1.29,7.46-2.8,14.92-4.73,22.24-2.25,8.53-7.9,14.11-16.67,15.68-3.87.69-7.97.12-11.96.12,0,.05,0,.09,0,.14ZM482.93,139.63c-2.61,0-5.22-.01-7.83,0-2.72.02-5.11,1.81-5.7,4.46-1.29,5.78-2.53,11.56-3.7,17.36-.61,3.04.81,4.75,3.86,4.78,5.16.04,10.32.04,15.48,0,2.93-.02,5.08-1.68,5.74-4.57,1.34-5.82,2.61-11.65,3.83-17.5.55-2.65-1.11-4.51-3.87-4.53-2.61-.01-5.22,0-7.83,0Z"/><path class="d" d="M617.19,126.34c-.88,4.26-1.69,8.38-2.63,12.48-.09.38-1.07.78-1.64.78-9.66.05-19.32.06-28.98.02-2.06,0-3.52.93-4.56,2.55-1.73,2.69-.27,5.39,2.91,5.41,6.5.04,12.99.01,19.49.01,2.35,0,4.52.63,6.32,2.15,4.15,3.52,5.36,8.09,4.51,13.33-1.24,7.68-8.18,14.85-15.83,16.34-.43.08-.88.14-1.32.14-10.94,0-21.88,0-32.82,0-.32,0-.64-.07-1.12-.12.95-4.4,1.88-8.71,2.85-13.19.62,0,1.22,0,1.82,0,9.5,0,18.99.01,28.49,0,2.97,0,5.26-2.01,5.35-4.58.07-2.2-1.06-3.36-3.35-3.37-6.44-.02-12.88-.08-19.32-.02-6.86.06-10.85-5.55-11.32-10.86-.84-9.59,6.38-19.07,15.81-20.96.49-.1.99-.16,1.48-.16,10.99,0,21.99,0,32.98,0,.22,0,.44.03.88.06Z"/><path class="d" d="M338.95,83.63h25.31c-.77,3.63-1.49,7.08-2.26,10.71h-1.81c-7.33,0-14.66.02-21.99-.02-1.13,0-1.67.22-1.85,1.48-.3,2.13-.85,4.22-1.32,6.48h31.61c-.91,4.32-1.76,8.47-2.69,12.61-.07.31-.69.67-1.07.69-1.27.09-2.55.03-3.83.03-12.55,0-25.1,0-37.65,0-.6,0-1.21,0-1.99,0,.96-4.57,1.88-8.99,2.82-13.4,2.73-12.83,5.48-25.65,8.17-38.48.2-.95.42-1.43,1.53-1.43,13.05.04,26.1.03,39.15.03.22,0,.43.05.82.09-.93,4.43-1.85,8.79-2.79,13.27-.71,0-1.32,0-1.92,0-8.33,0-16.66.02-24.99-.02-1.15,0-1.66.28-1.85,1.49-.34,2.12-.9,4.2-1.4,6.48Z"/><path class="d" d="M320.95,147.58c-.77,3.64-1.49,7.09-2.25,10.7-.63,0-1.23,0-1.83,0-7.33,0-14.66.02-21.98-.02-1.14,0-1.67.24-1.84,1.49-.3,2.12-.85,4.21-1.32,6.47h31.61c-.91,4.31-1.76,8.46-2.69,12.6-.07.31-.68.67-1.06.7-1.05.1-2.11.03-3.16.03-12.77,0-25.54,0-38.3,0h-2.01c.84-4.01,1.64-7.88,2.47-11.75,2.84-13.36,5.7-26.72,8.52-40.09.19-.91.35-1.47,1.5-1.47,13.05.04,26.09.03,39.14.03.22,0,.43.05.83.11-.64,3.12-1.24,6.2-1.91,9.26-.86,3.99-.88,3.98-4.95,3.98-7.61,0-15.21.02-22.82-.02-1.15,0-1.66.27-1.86,1.49-.34,2.12-.9,4.2-1.4,6.48h25.31Z"/><path class="d" d="M503.72,179.56c3.8-17.86,7.55-35.54,11.32-53.29h9.46c8.44,0,16.88.17,25.32-.05,8.1-.2,14.2,7.07,12.64,15.27-2.01,10.54-4.38,21.01-6.6,31.52-.39,1.84-.74,3.69-1.23,5.51-.11.42-.72.99-1.11,1-3.88.07-7.76.05-11.79.05,1.14-5.43,2.24-10.72,3.37-16.01,1.36-6.38,2.76-12.76,4.12-19.15.53-2.49-.8-4.71-3.09-4.74-6.99-.09-13.98-.03-21.11-.03-.79,3.63-1.57,7.18-2.34,10.75-2.01,9.36-3.99,18.72-6.04,28.07-.1.44-.79,1.05-1.21,1.06-3.83.08-7.65.05-11.72.05Z"/><path class="d" d="M390.35,126.33h44.4c-.94,4.44-1.85,8.79-2.8,13.29h-15.76c-2.86,13.35-5.69,26.58-8.54,39.87h-12.73c2.83-13.25,5.64-26.41,8.5-39.8h-15.87c.97-4.61,1.88-8.97,2.8-13.35Z"/><path class="d" d="M411.79,102.23c-.98,4.59-1.9,8.9-2.84,13.29h-41.22c3.78-17.78,7.54-35.46,11.29-53.13h12.75c-2.8,13.29-5.58,26.48-8.4,39.85h28.42Z"/><path class="d" d="M442.65,179.5h-12.74c3.77-17.75,7.51-35.4,11.28-53.13h12.75c-3.76,17.72-7.52,35.38-11.29,53.13Z"/></g><g id="c">
<path class="e" d="M216.57,56.68c-15.79,7.02-31.13,13.84-46.48,20.66-.05-.1-.1-.19-.15-.29,14.91-8.57,29.81-17.14,44.97-25.86-15.54-6.46-30.79-12.8-46.04-19.14.03-.08.06-.16.09-.25,15.28,4.98,30.56,9.96,46.3,15.09-7.04-15.83-13.93-31.3-20.81-46.76.08-.04.15-.09.23-.13,8.61,14.91,17.21,29.83,26.02,45.08,3.29-8.72,6.43-17.06,9.58-25.41.08.03.16.05.24.08-2.32,8.79-4.64,17.57-7.06,26.77,16.02-6.99,31.72-13.84,47.42-20.69l.13.27c-14.59,8.3-29.19,16.6-44.15,25.11,15.99,4.6,31.57,9.08,47.16,13.56-.02.1-.05.19-.07.29-15.99-3.41-31.97-6.82-48.31-10.3,7.13,16.01,14.12,31.7,21.11,47.39-.08.04-.15.09-.23.13-8.65-14.91-17.31-29.83-26.09-44.96-5.56,11.18-11.02,22.16-16.48,33.14-.1-.04-.2-.08-.3-.13,4.25-11.06,8.49-22.13,12.92-33.65Z">          <animate attributeName="opacity" values="1;0;1;0;1;0;1;0;1;0;1;0;1;0;1;0;1" dur="1s" fill="freeze" />
      <!-- Scaling effect -->
   
</path></g></svg>