<?xml version="1.0" encoding="UTF-8"?><svg id="a" xmlns="http://www.w3.org/2000/svg" viewBox="0 0 488.4 460.28"><defs><style>.b{fill:#231f20;stroke-width:0px;}</style></defs><path class="b" d="M394.84,409.78c-.9,0-1.82-.16-2.71-.51-3.86-1.5-5.78-5.84-4.29-9.7l72.99-188.43-86.09-77.64-154.66,78.78-3.07,36.06c-.19,2.29-1.43,4.36-3.34,5.62l-49.41,32.63c-.13.09-.27.17-.41.25l-58.16,33.22,30.86,71.23c1.65,3.8-.1,8.22-3.9,9.86-3.8,1.65-8.22-.1-9.86-3.9l-33.52-77.39c-1.52-3.51-.16-7.6,3.16-9.49l63.78-36.43,46.18-30.5,3.12-36.59c.22-2.58,1.76-4.87,4.07-6.05l162.97-83.01c2.77-1.41,6.12-.97,8.43,1.11l93.76,84.55c2.31,2.08,3.09,5.38,1.97,8.28l-74.85,193.25c-1.15,2.97-3.99,4.79-7,4.79Z"/><path class="b" d="M339.65,391.78c-.43,0-.86-.04-1.3-.11-4.08-.71-6.81-4.6-6.1-8.68l36.3-207.89c.71-4.08,4.6-6.81,8.68-6.1,4.08.71,6.81,4.6,6.1,8.68l-36.3,207.89c-.64,3.64-3.8,6.21-7.38,6.21Z"/><path class="b" d="M31.08,188.37c-4.14,0-7.5-3.36-7.5-7.5V7.5c0-4.14,3.36-7.5,7.5-7.5h35.84c1.79,0,3.52.64,4.88,1.81l175.8,150.66c3.14,2.7,3.51,7.43.81,10.58-2.7,3.14-7.43,3.51-10.58.81L64.15,15h-25.57v165.87c0,4.14-3.36,7.5-7.5,7.5Z"/><path class="b" d="M194.99,194.55c-2.04,0-4.08-.83-5.56-2.46L49.11,37.24c-2.78-3.07-2.55-7.81.52-10.59,3.07-2.78,7.81-2.55,10.59.52l140.31,154.84c2.78,3.07,2.55,7.81-.52,10.59-1.44,1.3-3.24,1.94-5.03,1.94Z"/><path class="b" d="M31.08,298.98c-17.14,0-31.08-13.94-31.08-31.09,0-14.56,10.06-26.81,23.58-30.17v-12.98c0-4.14,3.36-7.5,7.5-7.5s7.5,3.36,7.5,7.5v19.57c0,4.14-3.36,7.5-7.5,7.5-8.87,0-16.08,7.22-16.08,16.09s7.22,16.09,16.08,16.09c5.47,0,10.52-2.75,13.51-7.35,2.25-3.48,6.9-4.46,10.37-2.21,3.48,2.25,4.46,6.9,2.21,10.37-5.76,8.88-15.52,14.18-26.09,14.18Z"/><path class="b" d="M49.58,231.57H12.59c-4.14,0-7.5-3.36-7.5-7.5v-43.2c0-4.14,3.36-7.5,7.5-7.5h37c4.14,0,7.5,3.36,7.5,7.5v43.2c0,4.14-3.36,7.5-7.5,7.5ZM20.09,216.57h22v-28.2h-22v28.2Z"/><path class="b" d="M122.03,309.6c-4.14,0-7.5-3.36-7.5-7.5v-85.5c0-4.14,3.36-7.5,7.5-7.5h44.44c4.14,0,7.5,3.36,7.5,7.5s-3.36,7.5-7.5,7.5h-36.94v78c0,4.14-3.36,7.5-7.5,7.5Z"/><path class="b" d="M122.03,224.1h-25.89c-4.14,0-7.5-3.36-7.5-7.5v-27.55c0-4.14,3.36-7.5,7.5-7.5h70.33c4.14,0,7.5,3.36,7.5,7.5s-3.36,7.5-7.5,7.5h-62.83v12.55h18.39c4.14,0,7.5,3.36,7.5,7.5s-3.36,7.5-7.5,7.5Z"/><path class="b" d="M122.03,196.55c-4.14,0-7.5-3.36-7.5-7.5v-41.05c0-4.14,3.36-7.5,7.5-7.5s7.5,3.36,7.5,7.5v41.05c0,4.14-3.36,7.5-7.5,7.5Z"/><path class="b" d="M402.84,411.78c-21.32,0-32.55-5.75-42.45-10.83-9.61-4.92-17.9-9.17-35.61-9.17s-26,4.25-35.6,9.17c-9.9,5.07-21.12,10.83-42.45,10.83s-32.54-5.75-42.45-10.83c-9.61-4.92-17.9-9.17-35.6-9.17s-26,4.25-35.6,9.17c-9.9,5.07-21.12,10.83-42.45,10.83s-32.54-5.75-42.45-10.83c-9.61-4.92-17.9-9.17-35.6-9.17-4.14,0-7.5-3.36-7.5-7.5s3.36-7.5,7.5-7.5c21.32,0,32.54,5.75,42.44,10.83,9.61,4.92,17.9,9.17,35.6,9.17s26-4.25,35.6-9.17c9.9-5.07,21.12-10.83,42.45-10.83s32.54,5.75,42.45,10.83c9.61,4.92,17.9,9.17,35.6,9.17s26-4.25,35.6-9.17c9.9-5.07,21.12-10.83,42.45-10.83s32.55,5.75,42.45,10.83c9.61,4.92,17.9,9.17,35.61,9.17s26-4.25,35.61-9.17c9.9-5.07,21.12-10.83,42.45-10.83,4.14,0,7.5,3.36,7.5,7.5s-3.36,7.5-7.5,7.5c-17.7,0-26,4.25-35.61,9.17-9.9,5.07-21.12,10.83-42.45,10.83Z"/><path class="b" d="M402.84,460.28c-21.32,0-32.55-5.75-42.45-10.83-9.61-4.92-17.9-9.17-35.61-9.17s-26,4.25-35.6,9.17c-9.9,5.07-21.12,10.83-42.45,10.83s-32.54-5.75-42.45-10.83c-9.61-4.92-17.9-9.17-35.6-9.17s-26,4.25-35.6,9.17c-9.9,5.07-21.12,10.83-42.45,10.83-4.14,0-7.5-3.36-7.5-7.5s3.36-7.5,7.5-7.5c17.7,0,26-4.25,35.6-9.17,9.9-5.07,21.12-10.83,42.45-10.83s32.54,5.75,42.45,10.83c9.61,4.92,17.9,9.17,35.6,9.17s26-4.25,35.6-9.17c9.9-5.07,21.12-10.83,42.45-10.83s32.55,5.75,42.45,10.83c9.61,4.92,17.9,9.17,35.61,9.17,4.14,0,7.5,3.36,7.5,7.5s-3.36,7.5-7.5,7.5Z"/><path class="b" d="M303.54,160.31c-4.14,0-7.5-3.36-7.5-7.5v-25.15h-64.07c-4.14,0-7.5-3.36-7.5-7.5s3.36-7.5,7.5-7.5h71.57c4.14,0,7.5,3.36,7.5,7.5v32.65c0,4.14-3.36,7.5-7.5,7.5Z"/><path class="b" d="M258.51,127.66c-4.14,0-7.5-3.36-7.5-7.5v-45.57h-79.34c-4.14,0-7.5-3.36-7.5-7.5s3.36-7.5,7.5-7.5h86.84c4.14,0,7.5,3.36,7.5,7.5v53.07c0,4.14-3.36,7.5-7.5,7.5Z"/><path class="b" d="M194.98,74.59c-4.14,0-7.5-3.36-7.5-7.5V13.22c0-4.14,3.36-7.5,7.5-7.5s7.5,3.36,7.5,7.5v53.88c0,4.14-3.36,7.5-7.5,7.5Z"/><path class="b" d="M223.93,74.59c-4.14,0-7.5-3.36-7.5-7.5v-23.32c0-4.14,3.36-7.5,7.5-7.5s7.5,3.36,7.5,7.5v23.32c0,4.14-3.36,7.5-7.5,7.5Z"/><path class="b" d="M266.54,265.62c-4.14,0-7.5-3.36-7.5-7.5s3.17-7.31,7.14-7.49c.32-.33.88-1.3.88-2.82s-.56-2.5-.88-2.82c-3.98-.19-7.14-3.47-7.14-7.49s3.36-7.5,7.5-7.5c8.56,0,15.53,7.99,15.53,17.82s-6.96,17.82-15.53,17.82ZM266.54,244.98h0,0Z"/></svg>