<?xml version="1.0" encoding="UTF-8"?><svg id="a" xmlns="http://www.w3.org/2000/svg" viewBox="0 0 334 532"><defs><style>.b{fill:#010101;stroke-width:0px;}</style></defs><path class="b" d="M327.23,11h-90.23v-3.86c0-3.87-2.54-7.14-6.4-7.14h-126.35c-3.87,0-7.25,3.27-7.25,7.14v3.86H7.3c-3.87,0-7.3,3.28-7.3,7.14v47.96c0,3.86,3.43,6.9,7.3,6.9h89.7v68.11c0,3.87,3.38,6.89,7.25,6.89h3.75s-.02.03-.02.05c-.49,1.7-.75,3.5-.75,5.34,0,8.59,5.63,16.03,13.39,18.54.02,0,.04.01.06.02l-.2.04,39.52,81.04v75.24c0,3.86,3.13,7,7,7s7-3.14,7-7v-75.25h.23s39.85-81.01,39.85-81.01h.04s.07-.04.1-.05c7.76-2.51,13.4-9.9,13.4-18.49,0-1.84-.26-3.71-.75-5.41,0-.02,0-.05-.01-.05h3.76c3.86,0,6.4-3.02,6.4-6.89v-68.11h90.23c3.87,0,6.77-3.22,6.77-7.09V17.96c0-3.86-2.91-6.96-6.77-6.96ZM320,36.69c-1-5.11-4.83-9.69-9.49-11.69h9.49v11.69ZM301.73,47.38c-2.91,0-5.28-2.37-5.28-5.28s2.37-5.28,5.28-5.28,5.28,2.37,5.28,5.28-2.37,5.28-5.28,5.28ZM31.19,47.38c-2.91,0-5.28-2.37-5.28-5.28s2.37-5.28,5.28-5.28,5.28,2.37,5.28,5.28-2.37,5.28-5.28,5.28ZM22.03,25c-3.25,2-6.03,4.58-8.03,7.83v-7.83h8.03ZM14,51.38c2,3.26,4.82,5.62,8.1,7.62h-8.1v-7.62ZM40.28,59c6.06-3,10.19-9.67,10.19-17.02s-4.1-13.98-10.12-16.98h56.65v34h-56.72ZM198.04,173.13l-30.61,62.35-30.62-62.35-.13-.13h.13l30.62,62.48,30.61-62.48h.13l-.13.13ZM213.61,153.62c0,2.39-1.59,4.38-3.77,5.38h-84.84c-2.18-1-3.77-2.98-3.77-5.38,0-2.93,2.39-5.62,5.32-5.62h81.74c2.94,0,5.32,2.7,5.32,5.62ZM237,25h55.96c-6.23,3-10.51,9.7-10.51,17.17s3.99,13.83,9.87,16.83h-55.32V25ZM311.15,59c4.35-3,7.85-6.61,8.85-11.48v11.48h-8.85Z"/><path class="b" d="M327.22,379h-84.22v-47.03c0-3.87-3.11-6.97-6.98-6.97h-30.9c-1.47,0-2.9.45-4.09,1.3l-33.82,24.31-37.96-24.51c-1.13-.73-2.45-1.11-3.8-1.11h-24.35c-3.87,0-7.1,3.1-7.1,6.97v47.03H7.3C3.43,379,0,382.32,0,386.19v114.03c0,17.45,14.49,31.78,31.94,31.78h270.64c17.45,0,31.42-14.33,31.42-31.78v-114.03c0-3.87-2.91-7.19-6.78-7.19ZM108,339h15.39l40.24,25.97c2.42,1.56,5.55,1.49,7.89-.19l35.86-25.79h21.63v40h-121v-40Z"/><path class="b" d="M151.83,308.04c.96,0,1.93-.2,2.86-.62,3.53-1.59,5.1-5.73,3.52-9.25l-6.78-15.1c-1.58-3.53-5.73-5.1-9.25-3.52-3.52,1.59-5.1,5.73-3.52,9.25l6.78,15.1c1.17,2.6,3.72,4.13,6.39,4.13Z"/><path class="b" d="M121.12,301.04c-2.41,3.02-1.92,7.43,1.1,9.84l11.98,9.56c1.29,1.03,2.83,1.53,4.36,1.53,2.06,0,4.09-.9,5.48-2.63,2.41-3.02,1.92-7.43-1.1-9.84l-11.98-9.56c-3.02-2.41-7.43-1.92-9.84,1.1Z"/><path class="b" d="M192.68,317.76c1.38,1.49,3.26,2.25,5.14,2.25,1.7,0,3.4-.62,4.75-1.86l11.39-10.53c2.84-2.62,3.01-7.05.39-9.89-2.62-2.84-7.05-3.01-9.89-.39l-11.39,10.53c-2.84,2.63-3.01,7.05-.39,9.89Z"/><path class="b" d="M192.27,277.81c-3.62-1.36-7.65.47-9.02,4.09l-5.88,15.62c-1.36,3.62.47,7.66,4.09,9.02.81.31,1.65.45,2.47.45,2.83,0,5.5-1.73,6.55-4.54l5.88-15.62c1.36-3.62-.47-7.66-4.09-9.02Z"/></svg>