<?xml version="1.0" encoding="UTF-8"?><svg id="a" xmlns="http://www.w3.org/2000/svg" viewBox="0 0 463.42 495.46"><defs><style>.b{fill:#231f20;stroke-width:0px;}</style></defs><path class="b" d="M134.68,385.26c-9.36,0-18.72-1.79-27.67-5.36-18.49-7.39-33-21.54-40.86-39.84-7.85-18.3-8.11-38.57-.72-57.06,7.39-18.49,21.54-33,39.84-40.86l181.57-77.91c37.78-16.21,81.71,1.33,97.92,39.11,16.21,37.78-1.34,81.71-39.12,97.92l-181.57,77.91c-9.44,4.05-19.41,6.08-29.39,6.08ZM316.16,173.19c-7.83,0-15.77,1.55-23.4,4.83l-181.57,77.91c-14.62,6.27-25.92,17.86-31.82,32.64-5.9,14.77-5.7,30.96.58,45.58,6.27,14.62,17.86,25.92,32.64,31.82,14.77,5.9,30.96,5.7,45.58-.58l181.57-77.91h0c14.62-6.27,25.92-17.86,31.82-32.64,5.9-14.77,5.7-30.96-.58-45.58-9.67-22.54-31.71-36.07-54.81-36.07Z"/><path class="b" d="M118.6,285.74c-2.07,0-4.12-.85-5.6-2.51-2.75-3.09-2.48-7.83.61-10.59,5.98-5.32,12.77-9.64,20.2-12.82l51.55-22.12c3.81-1.63,8.22.13,9.85,3.93,1.63,3.81-.13,8.22-3.93,9.85l-51.54,22.12c-5.94,2.55-11.37,5.99-16.14,10.24-1.43,1.27-3.21,1.9-4.98,1.9Z"/><path class="b" d="M100.76,311.38c-.91,0-1.83-.17-2.73-.52-3.86-1.51-5.76-5.86-4.25-9.72.87-2.23,1.87-4.45,2.95-6.58,1.88-3.69,6.39-5.17,10.08-3.29,3.69,1.88,5.17,6.39,3.29,10.08-.87,1.71-1.66,3.48-2.36,5.26-1.16,2.96-3.99,4.77-6.99,4.77Z"/><path class="b" d="M237.37,346.96c-1.42,0-2.86-.41-4.14-1.25-3.45-2.29-4.39-6.94-2.1-10.4l12.83-19.34c7.19-10.83,10.98-23.42,10.98-36.42,0-29.2-19.6-55.23-47.66-63.29l-4.91-1.41c-3.98-1.14-6.28-5.3-5.14-9.28,1.14-3.98,5.3-6.28,9.28-5.14l4.91,1.41c34.46,9.9,58.52,41.86,58.52,77.71,0,15.96-4.66,31.42-13.49,44.71l-12.83,19.34c-1.44,2.18-3.83,3.35-6.26,3.35Z"/><path class="b" d="M131.35,189.67h-43.57c-2.68,0-5.16-1.43-6.5-3.75l-21.78-37.73c-1.34-2.32-1.34-5.18,0-7.5l21.78-37.73c1.34-2.32,3.82-3.75,6.5-3.75h43.57c2.68,0,5.16,1.43,6.5,3.75l21.78,37.73c1.34,2.32,1.34,5.18,0,7.5l-21.78,37.73c-1.34,2.32-3.82,3.75-6.5,3.75ZM92.11,174.67h34.91l17.45-30.23-17.45-30.23h-34.91l-17.45,30.23,17.45,30.23Z"/><path class="b" d="M238.71,112.19h-43.57c-2.68,0-5.16-1.43-6.5-3.75l-21.78-37.73c-1.34-2.32-1.34-5.18,0-7.5l21.78-37.73c1.34-2.32,3.82-3.75,6.5-3.75h43.57c2.68,0,5.16,1.43,6.5,3.75l21.78,37.73c1.34,2.32,1.34,5.18,0,7.5l-21.78,37.73c-1.34,2.32-3.82,3.75-6.5,3.75ZM199.47,97.19h34.91l17.45-30.23-17.45-30.23h-34.91l-17.45,30.23,17.45,30.23Z"/><path class="b" d="M131.35,114.2c-1.99,0-3.97-.79-5.45-2.34-2.85-3.01-2.72-7.76.29-10.6l42-39.75c3.01-2.85,7.76-2.72,10.6.29,2.85,3.01,2.72,7.76-.29,10.6l-42,39.75c-1.45,1.37-3.3,2.05-5.15,2.05Z"/><path class="b" d="M239.49,36.72c-1.99,0-3.97-.79-5.45-2.34-2.85-3.01-2.72-7.76.29-10.6l22.96-21.72c3.01-2.85,7.76-2.72,10.6.29,2.85,3.01,2.72,7.76-.29,10.6l-22.96,21.72c-1.45,1.37-3.3,2.05-5.15,2.05Z"/><path class="b" d="M87.79,114.2c-2.28,0-4.52-1.03-6-2.99l-29.91-39.75c-2.49-3.31-1.83-8.01,1.48-10.5,3.31-2.49,8.01-1.83,10.5,1.48l29.91,39.75c2.49,3.31,1.83,8.01-1.48,10.5-1.35,1.02-2.93,1.51-4.5,1.51Z"/><path class="b" d="M57.87,229.42c-1.57,0-3.15-.49-4.5-1.51-3.31-2.49-3.97-7.19-1.48-10.5l29.91-39.75c2.49-3.31,7.19-3.97,10.5-1.48,3.31,2.49,3.97,7.19,1.48,10.5l-29.91,39.75c-1.47,1.96-3.72,2.99-6,2.99Z"/><path class="b" d="M146.89,209.54c-2.23,0-4.44-.99-5.91-2.88l-15.54-19.88c-2.55-3.26-1.97-7.98,1.29-10.53,3.26-2.55,7.98-1.97,10.53,1.29l15.54,19.88c2.55,3.26,1.97,7.98-1.29,10.53-1.37,1.07-3,1.59-4.61,1.59Z"/><path class="b" d="M27.81,74.46H7.5c-4.14,0-7.5-3.36-7.5-7.5s3.36-7.5,7.5-7.5h20.31c4.14,0,7.5,3.36,7.5,7.5s-3.36,7.5-7.5,7.5Z"/><path class="b" d="M308.61,15h-20.31c-4.14,0-7.5-3.36-7.5-7.5s3.36-7.5,7.5-7.5h20.31c4.14,0,7.5,3.36,7.5,7.5s-3.36,7.5-7.5,7.5Z"/><path class="b" d="M57.88,43.85H7.5c-4.14,0-7.5-3.36-7.5-7.5s3.36-7.5,7.5-7.5h50.38c4.14,0,7.5,3.36,7.5,7.5s-3.36,7.5-7.5,7.5Z"/><path class="b" d="M32.08,229.42H11.77c-4.14,0-7.5-3.36-7.5-7.5s3.36-7.5,7.5-7.5h20.31c4.14,0,7.5,3.36,7.5,7.5s-3.36,7.5-7.5,7.5Z"/><path class="b" d="M324.83,455.71h-43.57c-2.68,0-5.16-1.43-6.5-3.75l-21.78-37.73c-1.34-2.32-1.34-5.18,0-7.5l21.78-37.73c1.34-2.32,3.82-3.75,6.5-3.75h43.57c2.68,0,5.16,1.43,6.5,3.75l21.78,37.73c1.34,2.32,1.34,5.18,0,7.5l-21.78,37.73c-1.34,2.32-3.82,3.75-6.5,3.75ZM285.59,440.71h34.91l17.45-30.23-17.45-30.23h-34.91l-17.45,30.23,17.45,30.23Z"/><path class="b" d="M432.18,378.23h-43.57c-2.68,0-5.16-1.43-6.5-3.75l-21.78-37.73c-1.34-2.32-1.34-5.18,0-7.5l21.78-37.73c1.34-2.32,3.82-3.75,6.5-3.75h43.57c2.68,0,5.16,1.43,6.5,3.75l21.78,37.73c1.34,2.32,1.34,5.18,0,7.5l-21.78,37.73c-1.34,2.32-3.82,3.75-6.5,3.75ZM392.94,363.23h34.91l17.45-30.23-17.45-30.23h-34.91l-17.45,30.23,17.45,30.23Z"/><path class="b" d="M324.83,380.25c-1.99,0-3.97-.79-5.45-2.34-2.85-3.01-2.72-7.76.29-10.6l42-39.75c3.01-2.85,7.75-2.72,10.6.29,2.85,3.01,2.72,7.76-.29,10.6l-42,39.75c-1.45,1.37-3.3,2.05-5.15,2.05Z"/><path class="b" d="M432.96,302.77c-1.99,0-3.97-.79-5.45-2.34-2.85-3.01-2.72-7.76.29-10.6l22.96-21.72c3.01-2.85,7.75-2.72,10.6.29,2.85,3.01,2.72,7.76-.29,10.6l-22.96,21.72c-1.45,1.37-3.3,2.05-5.15,2.05Z"/><path class="b" d="M455.92,399.96c-1.85,0-3.7-.68-5.15-2.05l-22.96-21.72c-3.01-2.85-3.14-7.59-.29-10.6,2.85-3.01,7.59-3.14,10.6-.29l22.96,21.72c3.01,2.85,3.14,7.59.29,10.6-1.47,1.56-3.46,2.34-5.45,2.34Z"/><path class="b" d="M281.26,380.25c-2.28,0-4.52-1.03-6-2.99l-14.33-19.04c-2.49-3.31-1.83-8.01,1.48-10.5,3.31-2.49,8.01-1.83,10.5,1.48l14.33,19.05c2.49,3.31,1.83,8.01-1.48,10.5-1.35,1.02-2.93,1.51-4.5,1.51Z"/><path class="b" d="M251.34,495.46c-1.57,0-3.15-.49-4.5-1.51-3.31-2.49-3.97-7.19-1.48-10.5l29.91-39.75c2.49-3.31,7.19-3.98,10.5-1.48,3.31,2.49,3.97,7.19,1.48,10.5l-29.91,39.75c-1.47,1.96-3.72,2.99-6,2.99Z"/><path class="b" d="M355.9,495.46c-2.23,0-4.43-.99-5.91-2.88l-31.07-39.75c-2.55-3.26-1.97-7.98,1.29-10.53,3.26-2.55,7.98-1.97,10.53,1.29l31.07,39.75c2.55,3.26,1.97,7.98-1.29,10.53-1.37,1.07-3,1.59-4.61,1.59Z"/><path class="b" d="M225.62,495.46h-20.31c-4.14,0-7.5-3.36-7.5-7.5s3.36-7.5,7.5-7.5h20.31c4.14,0,7.5,3.36,7.5,7.5s-3.36,7.5-7.5,7.5Z"/><path class="b" d="M404.14,495.46h-20.31c-4.14,0-7.5-3.36-7.5-7.5s3.36-7.5,7.5-7.5h20.31c4.14,0,7.5,3.36,7.5,7.5s-3.36,7.5-7.5,7.5Z"/><path class="b" d="M420.32,466.85h-36.5c-4.14,0-7.5-3.36-7.5-7.5s3.36-7.5,7.5-7.5h36.5c4.14,0,7.5,3.36,7.5,7.5s-3.36,7.5-7.5,7.5Z"/></svg>