<?xml version="1.0" encoding="UTF-8"?><svg id="a" xmlns="http://www.w3.org/2000/svg" viewBox="0 0 46 48"><defs><style>.b{fill:none;stroke:#010101;stroke-linejoin:round;stroke-width:2px;}</style></defs><polygon class="b" points="1 29 18 36 23 33 23 32 6 25 1 28 1 29"/><polygon class="b" points="45 29 28 36 23 33 23 32 40 25 45 28 45 29"/><polyline class="b" points="8 23.18 6 24 1 21 1 20 8 17.12"/><polyline class="b" points="38 23 40 24 45 21 45 20 38 17.12"/><line class="b" x1="23" y1="33" x2="23" y2="47"/><polyline class="b" points="40 31 40 40 23 47 6 40 6 31"/><polyline class="b" points="8 26 8 15 18 19 18 30"/><polyline class="b" points="28 30 28 15 18 19 18 28"/><polyline class="b" points="28 15 18 11 8 15"/><polyline class="b" points="28 12 28 4 21 1 14 4 14 13"/><polyline class="b" points="28 4 21 7 14 4"/><line class="b" x1="38" y1="14" x2="28" y2="18"/><line class="b" x1="21" y1="7" x2="21" y2="12"/><polyline class="b" points="24 13.4 30 11 38 14 38 26"/></svg>