<?xml version="1.0" encoding="UTF-8"?><svg id="a" xmlns="http://www.w3.org/2000/svg" viewBox="0 0 472.97 421.23"><defs><style>.b{fill:#000;stroke-width:0px;}</style></defs><path class="b" d="M96.44,388.1c-20.78-19.85-41.2-39.37-63.18-60.37,1.99-1.19,3.99-1.91,5.37-3.27,51.17-50.23,102.3-100.51,153.34-150.87,2.72-2.68,5.43-4.26,9.17-3.52,9.15,1.79,15.91-1.93,22.66-7.95,14.76-13.16,30.19-25.57,46.04-38.87-7.18-3.54-13.91-6.86-21.14-10.42,8.15-20.05,16.24-39.94,24.6-60.51,31.62,13.86,62.98,27.61,94.93,41.62-7.99,20.22-15.87,40.18-23.97,60.67-9.83-4.22-19.28-8.15-28.6-12.36-2.92-1.32-4.59-.85-6.69,1.57-17.68,20.34-35.53,40.52-53.23,60.85-1.32,1.51-2.25,3.69-2.57,5.68-.79,4.92-1.65,9.92-1.49,14.86.24,7.08-2.65,11.98-7.6,16.86-48.12,47.41-96.02,95.03-143.99,142.59-1.05,1.04-2.15,2.03-3.66,3.45Z"/><path class="b" d="M243.73,110.43c-11.14-4.71-21.76-8.95-32.1-13.8-1.86-.87-3.21-4.13-3.65-6.5-.98-5.28-3.82-8.03-8.67-10.3-37.76-17.64-75.36-35.6-113.02-53.47-1.49-.7-2.95-1.46-5.05-2.5,4.22-7.92,8.19-15.68,12.58-23.2.48-.82,3.49-.85,4.98-.31,25.72,9.36,51.38,18.86,77.06,28.34,13.23,4.88,26.49,9.65,39.65,14.7,3.12,1.2,5.67,1.41,8.23-.85,3.48-3.07,7.17-2.85,11.44-1.48,10.41,3.32,20.97,6.18,32.15,9.43-7.88,20.01-15.62,39.68-23.6,59.94Z"/><path class="b" d="M472.97,158.65c-4.37,9.41-8.76,18.83-13.45,28.91-6.22-2.67-12.31-5.1-18.23-7.9-2.85-1.35-5.15-1.84-7.45.81-.86.99-2.19,1.55-3.07,2.52-2.85,3.12-5.81,3.3-9.74,1.7-14.73-5.98-29.6-11.59-45.06-17.6,8.23-19.2,16.35-38.17,24.64-57.51,1.57.55,2.95.92,4.24,1.49,13.36,5.86,26.64,11.89,40.1,17.52,3.58,1.5,5.13,3.52,4.15,7.06-2.4,8.68,1.66,12.95,9.48,15.59,4.67,1.58,8.95,4.31,13.4,6.54.29.14.5.43.99.87Z"/><path class="b" d="M0,365.86c10.73-11.4,20.96-22.27,31.49-33.47,20.48,19.68,40.72,39.13,60.64,58.28-9.84,10.14-19.54,20.12-29.67,30.56-20.81-18.45-41.4-36.69-62.47-55.37Z"/><path class="b" d="M395.06,106.14c-8.48,19.92-16.72,39.27-25.13,59.01-7.38-3.23-14.46-6.32-21.97-9.6,8.22-19.93,16.28-39.5,24.5-59.43,7.6,3.37,14.8,6.57,22.6,10.02Z"/></svg>