<?xml version="1.0" encoding="UTF-8"?><svg id="a" xmlns="http://www.w3.org/2000/svg" viewBox="0 0 53.87 89.33"><defs><style>.b{fill:#4e4e4e;}.b,.c{stroke:#231f20;stroke-miterlimit:10;}.c{fill:#fff;}</style></defs><rect class="c" x="1.5" y="23.3" width="50.87" height="64.52" rx="9.07" ry="9.07"/><path class="b" d="M43.3,88.83H10.57c-5.55,0-10.07-4.52-10.07-10.07v-46.38c0-5.55,4.52-10.07,10.07-10.07h32.73c5.55,0,10.07,4.52,10.07,10.07v46.38c0,5.55-4.52,10.07-10.07,10.07ZM10.57,24.3c-4.45,0-8.07,3.62-8.07,8.07v46.38c0,4.45,3.62,8.07,8.07,8.07h32.73c4.45,0,8.07-3.62,8.07-8.07v-46.38c0-4.45-3.62-8.07-8.07-8.07H10.57Z"/><rect class="c" x="1.5" y="39.18" width="50.87" height="32.76"/><path class="b" d="M52.37,72.95H1.5c-.55,0-1-.45-1-1v-32.77c0-.55.45-1,1-1h50.87c.55,0,1,.45,1,1v32.77c0,.55-.45,1-1,1ZM2.5,70.95h48.87v-30.77H2.5v30.77Z"/><rect class="c" x="18.01" y="13.65" width="17.86" height="9.65"/><path class="b" d="M35.87,24.3h-17.86c-.55,0-1-.45-1-1v-9.65c0-.55.45-1,1-1h17.86c.55,0,1,.45,1,1v9.65c0,.55-.45,1-1,1ZM19.01,22.3h15.86v-7.65h-15.86v7.65Z"/><rect class="c" x="10.75" y="1.5" width="32.37" height="12.15" rx="4.44" ry="4.44"/><path class="b" d="M38.69,14.65H15.19c-3,0-5.44-2.44-5.44-5.44v-3.28c0-3,2.44-5.44,5.44-5.44h23.5c3,0,5.44,2.44,5.44,5.44v3.28c0,3-2.44,5.44-5.44,5.44ZM15.19,2.5c-1.9,0-3.44,1.54-3.44,3.44v3.28c0,1.9,1.54,3.44,3.44,3.44h23.5c1.9,0,3.44-1.54,3.44-3.44v-3.28c0-1.9-1.54-3.44-3.44-3.44H15.19Z"/><path class="c" d="M16.45,66.05c-1.84-1.84-1.84-4.86,0-6.71l14.27-14.27c1.84-1.84,4.86-1.84,6.71,0s1.84,4.86,0,6.71l-14.27,14.27c-1.84,1.84-4.86,1.84-6.71,0Z"/><path class="b" d="M19.8,68.44c-1.47,0-2.94-.56-4.06-1.68-2.24-2.24-2.24-5.88,0-8.12l14.27-14.27c2.24-2.24,5.88-2.24,8.12,0,2.24,2.24,2.24,5.88,0,8.12l-14.27,14.27c-1.12,1.12-2.59,1.68-4.06,1.68ZM34.07,44.69c-.96,0-1.92.36-2.65,1.09l-14.27,14.27c-1.46,1.46-1.46,3.83,0,5.29,1.46,1.46,3.83,1.46,5.29,0l14.27-14.27c1.46-1.46,1.46-3.83,0-5.29-.73-.73-1.69-1.09-2.65-1.09Z"/><path class="c" d="M23.58,52.21l6.71,6.71-6.71-6.71Z"/><rect class="b" x="25.94" y="50.82" width="2" height="9.48" transform="translate(-31.4 35.32) rotate(-45)"/><path class="c" d="M18.01,1.5v12.15V1.5Z"/><path class="b" d="M18.01,14.65c-.55,0-1-.45-1-1V1.5c0-.55.45-1,1-1s1,.45,1,1v12.15c0,.55-.45,1-1,1Z"/><path class="c" d="M23.58,1.5v12.15V1.5Z"/><path class="b" d="M23.58,14.65c-.55,0-1-.45-1-1V1.5c0-.55.45-1,1-1s1,.45,1,1v12.15c0,.55-.45,1-1,1Z"/><path class="c" d="M29.06,1.5v12.15V1.5Z"/><path class="b" d="M29.06,14.65c-.55,0-1-.45-1-1V1.5c0-.55.45-1,1-1s1,.45,1,1v12.15c0,.55-.45,1-1,1Z"/></svg>